<svg width="497" height="194" viewBox="0 0 497 194" fill="none" xmlns="http://www.w3.org/2000/svg">
<path d="M4.878 18.216C4.302 18.216 3.78 18.114 3.312 17.91C2.856 17.706 2.46 17.412 2.124 17.028C1.788 16.632 1.53 16.152 1.35 15.588C1.17 15.024 1.08 14.376 1.08 13.644C1.08 12.936 1.188 12.3 1.404 11.736C1.632 11.16 1.926 10.674 2.286 10.278C2.658 9.882 3.084 9.576 3.564 9.36C4.044 9.144 4.542 9.036 5.058 9.036C5.586 9.036 6.054 9.138 6.462 9.342C6.882 9.534 7.284 9.81 7.668 10.17H7.722L7.65 8.55V5.184H9.126V18H7.902L7.776 16.848H7.722C7.362 17.22 6.93 17.544 6.426 17.82C5.934 18.084 5.418 18.216 4.878 18.216ZM5.184 16.974C6.048 16.974 6.87 16.536 7.65 15.66V11.304C7.254 10.932 6.864 10.668 6.48 10.512C6.108 10.356 5.73 10.278 5.346 10.278C4.962 10.278 4.602 10.362 4.266 10.53C3.942 10.686 3.654 10.914 3.402 11.214C3.162 11.502 2.97 11.85 2.826 12.258C2.682 12.666 2.61 13.122 2.61 13.626C2.61 14.682 2.832 15.504 3.276 16.092C3.732 16.68 4.368 16.974 5.184 16.974ZM16.733 18.216C16.073 18.216 15.455 18.114 14.879 17.91C14.315 17.706 13.817 17.406 13.385 17.01C12.965 16.614 12.629 16.134 12.377 15.57C12.137 14.994 12.017 14.34 12.017 13.608C12.017 12.9 12.137 12.264 12.377 11.7C12.629 11.136 12.959 10.656 13.367 10.26C13.787 9.864 14.261 9.564 14.789 9.36C15.329 9.144 15.893 9.036 16.481 9.036C17.105 9.036 17.663 9.138 18.155 9.342C18.659 9.534 19.079 9.81 19.415 10.17C19.763 10.53 20.027 10.962 20.207 11.466C20.387 11.97 20.477 12.528 20.477 13.14C20.477 13.308 20.471 13.47 20.459 13.626C20.447 13.782 20.429 13.92 20.405 14.04H13.511C13.607 15.036 13.967 15.786 14.591 16.29C15.227 16.782 16.001 17.028 16.913 17.028C17.441 17.028 17.915 16.956 18.335 16.812C18.767 16.656 19.181 16.452 19.577 16.2L20.117 17.172C19.685 17.46 19.187 17.706 18.623 17.91C18.071 18.114 17.441 18.216 16.733 18.216ZM16.517 10.206C16.157 10.206 15.809 10.266 15.473 10.386C15.149 10.506 14.855 10.68 14.591 10.908C14.327 11.124 14.105 11.4 13.925 11.736C13.745 12.072 13.619 12.456 13.547 12.888H19.127C19.067 11.988 18.803 11.316 18.335 10.872C17.879 10.428 17.273 10.206 16.517 10.206ZM25.9419 18V10.458H23.4399V9.342L25.9419 9.252V8.514C25.9419 7.446 26.2239 6.588 26.7879 5.94C27.3639 5.292 28.2579 4.968 29.4699 4.968C30.3339 4.968 31.1739 5.136 31.9899 5.472L31.6479 6.588C31.2879 6.42 30.9519 6.312 30.6399 6.264C30.3399 6.204 29.9979 6.174 29.6139 6.174C28.8219 6.174 28.2519 6.378 27.9039 6.786C27.5679 7.182 27.3999 7.74 27.3999 8.46V9.252H31.0719V10.458H27.3999V18H25.9419ZM49.3999 18.216C48.7159 18.216 48.0799 18.114 47.4919 17.91C46.9159 17.706 46.4119 17.412 45.9799 17.028C45.5479 16.632 45.2119 16.152 44.9719 15.588C44.7319 15.012 44.6119 14.364 44.6119 13.644C44.6119 12.912 44.7379 12.264 44.9899 11.7C45.2539 11.124 45.6079 10.638 46.0519 10.242C46.4959 9.846 47.0119 9.546 47.5999 9.342C48.1999 9.138 48.8299 9.036 49.4899 9.036C50.2099 9.036 50.8279 9.162 51.3439 9.414C51.8719 9.666 52.3159 9.966 52.6759 10.314L51.9379 11.268C51.5779 10.956 51.1999 10.71 50.8039 10.53C50.4199 10.35 49.9999 10.26 49.5439 10.26C49.0399 10.26 48.5779 10.344 48.1579 10.512C47.7379 10.668 47.3779 10.896 47.0779 11.196C46.7899 11.496 46.5619 11.856 46.3939 12.276C46.2259 12.684 46.1419 13.14 46.1419 13.644C46.1419 14.148 46.2199 14.604 46.3759 15.012C46.5439 15.42 46.7719 15.774 47.0599 16.074C47.3599 16.362 47.7139 16.59 48.1219 16.758C48.5419 16.914 49.0039 16.992 49.5079 16.992C50.0479 16.992 50.5399 16.89 50.9839 16.686C51.4399 16.47 51.8479 16.206 52.2079 15.894L52.8739 16.848C52.3819 17.28 51.8419 17.616 51.2539 17.856C50.6659 18.096 50.0479 18.216 49.3999 18.216ZM59.3648 18.216C58.7888 18.216 58.2368 18.114 57.7088 17.91C57.1928 17.706 56.7368 17.412 56.3408 17.028C55.9448 16.632 55.6268 16.152 55.3868 15.588C55.1588 15.012 55.0448 14.364 55.0448 13.644C55.0448 12.912 55.1588 12.264 55.3868 11.7C55.6268 11.124 55.9448 10.638 56.3408 10.242C56.7368 9.846 57.1928 9.546 57.7088 9.342C58.2368 9.138 58.7888 9.036 59.3648 9.036C59.9408 9.036 60.4868 9.138 61.0028 9.342C61.5308 9.546 61.9928 9.846 62.3888 10.242C62.7848 10.638 63.0968 11.124 63.3248 11.7C63.5648 12.264 63.6848 12.912 63.6848 13.644C63.6848 14.364 63.5648 15.012 63.3248 15.588C63.0968 16.152 62.7848 16.632 62.3888 17.028C61.9928 17.412 61.5308 17.706 61.0028 17.91C60.4868 18.114 59.9408 18.216 59.3648 18.216ZM59.3648 16.992C59.7848 16.992 60.1628 16.914 60.4988 16.758C60.8468 16.59 61.1408 16.362 61.3808 16.074C61.6328 15.774 61.8248 15.42 61.9568 15.012C62.0888 14.604 62.1548 14.148 62.1548 13.644C62.1548 13.14 62.0888 12.684 61.9568 12.276C61.8248 11.856 61.6328 11.496 61.3808 11.196C61.1408 10.896 60.8468 10.668 60.4988 10.512C60.1628 10.344 59.7848 10.26 59.3648 10.26C58.9448 10.26 58.5608 10.344 58.2128 10.512C57.8768 10.668 57.5828 10.896 57.3308 11.196C57.0908 11.496 56.9048 11.856 56.7728 12.276C56.6408 12.684 56.5748 13.14 56.5748 13.644C56.5748 14.148 56.6408 14.604 56.7728 15.012C56.9048 15.42 57.0908 15.774 57.3308 16.074C57.5828 16.362 57.8768 16.59 58.2128 16.758C58.5608 16.914 58.9448 16.992 59.3648 16.992ZM65.8018 18V9.252H66.9898L67.1158 10.404H67.1518C67.3798 9.996 67.6438 9.666 67.9438 9.414C68.2438 9.162 68.6458 9.036 69.1498 9.036C70.0018 9.036 70.5538 9.54 70.8058 10.548C71.0578 10.08 71.3338 9.714 71.6338 9.45C71.9458 9.174 72.3538 9.036 72.8578 9.036C73.4698 9.036 73.9438 9.27 74.2798 9.738C74.6278 10.194 74.8018 10.86 74.8018 11.736V18H73.3258V11.844C73.3258 10.824 73.0138 10.314 72.3898 10.314C72.0778 10.314 71.8258 10.428 71.6338 10.656C71.4418 10.872 71.2258 11.208 70.9858 11.664V18H69.6178V11.844C69.6178 11.34 69.5458 10.962 69.4018 10.71C69.2698 10.446 69.0418 10.314 68.7178 10.314C68.4058 10.314 68.1418 10.428 67.9258 10.656C67.7098 10.872 67.4938 11.208 67.2778 11.664V18H65.8018ZM77.2248 21.69V9.252H78.4488L78.5748 10.368H78.6288C79.0368 9.984 79.5048 9.666 80.0328 9.414C80.5728 9.162 81.1128 9.036 81.6528 9.036C82.2408 9.036 82.7568 9.144 83.2008 9.36C83.6568 9.564 84.0348 9.864 84.3348 10.26C84.6468 10.644 84.8808 11.112 85.0368 11.664C85.1928 12.204 85.2708 12.816 85.2708 13.5C85.2708 14.244 85.1628 14.91 84.9468 15.498C84.7308 16.074 84.4368 16.566 84.0648 16.974C83.7048 17.382 83.2848 17.694 82.8048 17.91C82.3248 18.114 81.8208 18.216 81.2928 18.216C80.8848 18.216 80.4408 18.12 79.9608 17.928C79.4928 17.724 79.0668 17.442 78.6828 17.082H78.6288L78.7008 18.738V21.69H77.2248ZM81.0408 16.974C81.8328 16.974 82.4808 16.668 82.9848 16.056C83.4888 15.444 83.7408 14.592 83.7408 13.5C83.7408 13.02 83.6928 12.582 83.5968 12.186C83.5008 11.79 83.3508 11.454 83.1468 11.178C82.9548 10.89 82.7028 10.668 82.3908 10.512C82.0788 10.356 81.7068 10.278 81.2748 10.278C80.8908 10.278 80.4768 10.386 80.0328 10.602C79.6008 10.806 79.1568 11.136 78.7008 11.592V15.948C79.1208 16.32 79.5408 16.584 79.9608 16.74C80.3808 16.896 80.7408 16.974 81.0408 16.974ZM91.7438 11.772C91.3358 11.772 90.9878 11.634 90.6998 11.358C90.4238 11.082 90.2858 10.716 90.2858 10.26C90.2858 9.804 90.4238 9.438 90.6998 9.162C90.9878 8.874 91.3358 8.73 91.7438 8.73C92.1518 8.73 92.4938 8.874 92.7698 9.162C93.0578 9.438 93.2018 9.804 93.2018 10.26C93.2018 10.716 93.0578 11.082 92.7698 11.358C92.4938 11.634 92.1518 11.772 91.7438 11.772ZM91.7438 18.216C91.3358 18.216 90.9878 18.078 90.6998 17.802C90.4238 17.526 90.2858 17.16 90.2858 16.704C90.2858 16.248 90.4238 15.882 90.6998 15.606C90.9878 15.318 91.3358 15.174 91.7438 15.174C92.1518 15.174 92.4938 15.318 92.7698 15.606C93.0578 15.882 93.2018 16.248 93.2018 16.704C93.2018 17.16 93.0578 17.526 92.7698 17.802C92.4938 18.078 92.1518 18.216 91.7438 18.216ZM115.724 21.168C114.476 20.196 113.486 19.026 112.754 17.658C112.034 16.29 111.674 14.736 111.674 12.996C111.674 11.256 112.034 9.702 112.754 8.334C113.486 6.966 114.476 5.796 115.724 4.824L116.534 5.58C115.322 6.6 114.428 7.71 113.852 8.91C113.288 10.11 113.006 11.472 113.006 12.996C113.006 14.52 113.288 15.882 113.852 17.082C114.428 18.282 115.322 19.392 116.534 20.412L115.724 21.168ZM134.916 11.772C134.508 11.772 134.16 11.634 133.872 11.358C133.596 11.082 133.458 10.716 133.458 10.26C133.458 9.804 133.596 9.438 133.872 9.162C134.16 8.874 134.508 8.73 134.916 8.73C135.324 8.73 135.666 8.874 135.942 9.162C136.23 9.438 136.374 9.804 136.374 10.26C136.374 10.716 136.23 11.082 135.942 11.358C135.666 11.634 135.324 11.772 134.916 11.772ZM134.916 18.216C134.508 18.216 134.16 18.078 133.872 17.802C133.596 17.526 133.458 17.16 133.458 16.704C133.458 16.248 133.596 15.882 133.872 15.606C134.16 15.318 134.508 15.174 134.916 15.174C135.324 15.174 135.666 15.318 135.942 15.606C136.23 15.882 136.374 16.248 136.374 16.704C136.374 17.16 136.23 17.526 135.942 17.802C135.666 18.078 135.324 18.216 134.916 18.216ZM158.896 21.168C157.648 20.196 156.658 19.026 155.926 17.658C155.206 16.29 154.846 14.736 154.846 12.996C154.846 11.256 155.206 9.702 155.926 8.334C156.658 6.966 157.648 5.796 158.896 4.824L159.706 5.58C158.494 6.6 157.6 7.71 157.024 8.91C156.46 10.11 156.178 11.472 156.178 12.996C156.178 14.52 156.46 15.882 157.024 17.082C157.6 18.282 158.494 19.392 159.706 20.412L158.896 21.168ZM178.088 11.772C177.68 11.772 177.332 11.634 177.044 11.358C176.768 11.082 176.63 10.716 176.63 10.26C176.63 9.804 176.768 9.438 177.044 9.162C177.332 8.874 177.68 8.73 178.088 8.73C178.496 8.73 178.838 8.874 179.114 9.162C179.402 9.438 179.546 9.804 179.546 10.26C179.546 10.716 179.402 11.082 179.114 11.358C178.838 11.634 178.496 11.772 178.088 11.772ZM178.088 18.216C177.68 18.216 177.332 18.078 177.044 17.802C176.768 17.526 176.63 17.16 176.63 16.704C176.63 16.248 176.768 15.882 177.044 15.606C177.332 15.318 177.68 15.174 178.088 15.174C178.496 15.174 178.838 15.318 179.114 15.606C179.402 15.882 179.546 16.248 179.546 16.704C179.546 17.16 179.402 17.526 179.114 17.802C178.838 18.078 178.496 18.216 178.088 18.216ZM200.591 18.216C199.859 18.216 199.181 18.078 198.557 17.802C197.933 17.526 197.387 17.13 196.919 16.614C196.463 16.086 196.103 15.444 195.839 14.688C195.575 13.92 195.443 13.056 195.443 12.096C195.443 11.148 195.575 10.296 195.839 9.54C196.103 8.784 196.469 8.142 196.937 7.614C197.405 7.086 197.963 6.684 198.611 6.408C199.259 6.12 199.967 5.976 200.735 5.976C201.443 5.976 202.067 6.12 202.607 6.408C203.159 6.696 203.609 7.032 203.957 7.416L203.111 8.37C202.799 8.046 202.451 7.788 202.067 7.596C201.683 7.392 201.239 7.29 200.735 7.29C200.171 7.29 199.655 7.404 199.187 7.632C198.731 7.848 198.341 8.166 198.017 8.586C197.693 8.994 197.441 9.492 197.261 10.08C197.081 10.668 196.991 11.328 196.991 12.06C196.991 12.804 197.081 13.476 197.261 14.076C197.441 14.664 197.693 15.168 198.017 15.588C198.341 16.008 198.731 16.332 199.187 16.56C199.655 16.788 200.171 16.902 200.735 16.902C201.275 16.902 201.755 16.788 202.175 16.56C202.607 16.332 203.015 16.008 203.399 15.588L204.245 16.506C203.777 17.046 203.249 17.466 202.661 17.766C202.073 18.066 201.383 18.216 200.591 18.216ZM208.072 21.168L207.262 20.412C208.474 19.392 209.362 18.282 209.926 17.082C210.502 15.882 210.79 14.52 210.79 12.996C210.79 11.472 210.502 10.11 209.926 8.91C209.362 7.71 208.474 6.6 207.262 5.58L208.072 4.824C209.32 5.796 210.304 6.966 211.024 8.334C211.756 9.702 212.122 11.256 212.122 12.996C212.122 14.736 211.756 16.29 211.024 17.658C210.304 19.026 209.32 20.196 208.072 21.168ZM232.214 18.27L231.458 17.442L235.076 14.076H227.174V12.852H235.076L231.458 9.486L232.214 8.658L237.128 13.428V13.5L232.214 18.27ZM262.037 21.168L261.227 20.412C262.439 19.392 263.327 18.282 263.891 17.082C264.467 15.882 264.755 14.52 264.755 12.996C264.755 11.472 264.467 10.11 263.891 8.91C263.327 7.71 262.439 6.6 261.227 5.58L262.037 4.824C263.285 5.796 264.269 6.966 264.989 8.334C265.721 9.702 266.087 11.256 266.087 12.996C266.087 14.736 265.721 16.29 264.989 17.658C264.269 19.026 263.285 20.196 262.037 21.168ZM286.179 18.27L285.423 17.442L289.041 14.076H281.139V12.852H289.041L285.423 9.486L286.179 8.658L291.093 13.428V13.5L286.179 18.27ZM309.997 21.168C308.749 20.196 307.759 19.026 307.027 17.658C306.307 16.29 305.947 14.736 305.947 12.996C305.947 11.256 306.307 9.702 307.027 8.334C307.759 6.966 308.749 5.796 309.997 4.824L310.807 5.58C309.595 6.6 308.701 7.71 308.125 8.91C307.561 10.11 307.279 11.472 307.279 12.996C307.279 14.52 307.561 15.882 308.125 17.082C308.701 18.282 309.595 19.392 310.807 20.412L309.997 21.168ZM329.189 11.772C328.781 11.772 328.433 11.634 328.145 11.358C327.869 11.082 327.731 10.716 327.731 10.26C327.731 9.804 327.869 9.438 328.145 9.162C328.433 8.874 328.781 8.73 329.189 8.73C329.597 8.73 329.939 8.874 330.215 9.162C330.503 9.438 330.647 9.804 330.647 10.26C330.647 10.716 330.503 11.082 330.215 11.358C329.939 11.634 329.597 11.772 329.189 11.772ZM329.189 18.216C328.781 18.216 328.433 18.078 328.145 17.802C327.869 17.526 327.731 17.16 327.731 16.704C327.731 16.248 327.869 15.882 328.145 15.606C328.433 15.318 328.781 15.174 329.189 15.174C329.597 15.174 329.939 15.318 330.215 15.606C330.503 15.882 330.647 16.248 330.647 16.704C330.647 17.16 330.503 17.526 330.215 17.802C329.939 18.078 329.597 18.216 329.189 18.216ZM347.733 21.762C347.301 21.762 346.917 21.702 346.581 21.582L346.887 20.412C347.007 20.448 347.133 20.478 347.265 20.502C347.409 20.526 347.547 20.538 347.679 20.538C348.291 20.538 348.789 20.358 349.173 19.998C349.557 19.65 349.857 19.206 350.073 18.666L350.343 18.018L346.257 9.252H347.751L349.893 14.094C350.061 14.478 350.235 14.892 350.415 15.336C350.607 15.78 350.793 16.212 350.973 16.632H351.045C351.201 16.212 351.357 15.786 351.513 15.354C351.681 14.91 351.837 14.49 351.981 14.094L353.889 9.252H355.293L351.441 18.72C351.273 19.152 351.081 19.554 350.865 19.926C350.649 20.298 350.391 20.616 350.091 20.88C349.791 21.156 349.443 21.372 349.047 21.528C348.663 21.684 348.225 21.762 347.733 21.762ZM372.523 18.27L371.767 17.442L375.385 14.076H367.483V12.852H375.385L371.767 9.486L372.523 8.658L377.437 13.428V13.5L372.523 18.27ZM402.346 21.168L401.536 20.412C402.748 19.392 403.636 18.282 404.2 17.082C404.776 15.882 405.064 14.52 405.064 12.996C405.064 11.472 404.776 10.11 404.2 8.91C403.636 7.71 402.748 6.6 401.536 5.58L402.346 4.824C403.594 5.796 404.578 6.966 405.298 8.334C406.03 9.702 406.396 11.256 406.396 12.996C406.396 14.736 406.03 16.29 405.298 17.658C404.578 19.026 403.594 20.196 402.346 21.168Z" fill="white"/>
<path d="M123.079 18V10.458H120.577V9.342L123.079 9.252V8.514C123.079 7.446 123.361 6.588 123.925 5.94C124.501 5.292 125.395 4.968 126.607 4.968C127.471 4.968 128.311 5.136 129.127 5.472L128.785 6.588C128.425 6.42 128.089 6.312 127.777 6.264C127.477 6.204 127.135 6.174 126.751 6.174C125.959 6.174 125.389 6.378 125.041 6.786C124.705 7.182 124.537 7.74 124.537 8.46V9.252H128.209V10.458H124.537V18H123.079ZM318.324 22.032C317.04 22.032 316.044 21.822 315.336 21.402C314.64 20.982 314.292 20.382 314.292 19.602C314.292 19.254 314.412 18.912 314.652 18.576C314.904 18.24 315.264 17.934 315.732 17.658V17.586C315.492 17.454 315.282 17.274 315.102 17.046C314.922 16.818 314.832 16.518 314.832 16.146C314.832 15.87 314.922 15.588 315.102 15.3C315.282 15 315.54 14.736 315.876 14.508V14.436C315.576 14.208 315.318 13.908 315.102 13.536C314.898 13.152 314.796 12.696 314.796 12.168C314.796 11.688 314.886 11.256 315.066 10.872C315.258 10.488 315.51 10.164 315.822 9.9C316.134 9.624 316.494 9.414 316.902 9.27C317.322 9.114 317.766 9.036 318.234 9.036C318.714 9.036 319.146 9.108 319.53 9.252H323.148V10.458H320.88C321.084 10.662 321.258 10.92 321.402 11.232C321.546 11.544 321.618 11.874 321.618 12.222C321.618 12.69 321.528 13.11 321.348 13.482C321.18 13.854 320.94 14.172 320.628 14.436C320.328 14.688 319.968 14.886 319.548 15.03C319.14 15.162 318.702 15.228 318.234 15.228C318.006 15.228 317.76 15.204 317.496 15.156C317.244 15.096 316.998 15.012 316.758 14.904C316.302 15.192 316.074 15.528 316.074 15.912C316.074 16.26 316.23 16.518 316.542 16.686C316.866 16.842 317.316 16.92 317.892 16.92H319.854C320.982 16.92 321.816 17.076 322.356 17.388C322.908 17.7 323.184 18.228 323.184 18.972C323.184 19.38 323.07 19.77 322.842 20.142C322.614 20.514 322.29 20.838 321.87 21.114C321.45 21.39 320.94 21.612 320.34 21.78C319.74 21.948 319.068 22.032 318.324 22.032ZM318.234 14.238C318.798 14.238 319.272 14.052 319.656 13.68C320.052 13.308 320.25 12.804 320.25 12.168C320.25 11.868 320.196 11.592 320.088 11.34C319.98 11.088 319.836 10.872 319.656 10.692C319.476 10.512 319.26 10.374 319.008 10.278C318.768 10.17 318.51 10.116 318.234 10.116C317.958 10.116 317.694 10.17 317.442 10.278C317.202 10.374 316.992 10.512 316.812 10.692C316.632 10.872 316.488 11.088 316.38 11.34C316.272 11.592 316.218 11.868 316.218 12.168C316.218 12.804 316.416 13.308 316.812 13.68C317.208 14.052 317.682 14.238 318.234 14.238ZM318.432 20.952C318.936 20.952 319.392 20.904 319.8 20.808C320.208 20.712 320.556 20.58 320.844 20.412C321.132 20.256 321.348 20.07 321.492 19.854C321.648 19.65 321.726 19.434 321.726 19.206C321.726 18.786 321.558 18.504 321.222 18.36C320.898 18.216 320.4 18.144 319.728 18.144H318.018C317.766 18.144 317.526 18.132 317.298 18.108C317.082 18.096 316.878 18.06 316.686 18C316.266 18.228 315.972 18.462 315.804 18.702C315.648 18.954 315.57 19.206 315.57 19.458C315.57 19.914 315.81 20.274 316.29 20.538C316.782 20.814 317.496 20.952 318.432 20.952Z" fill="#FFBA69"/>
<path d="M163.047 18L166.377 13.464L163.299 9.252H164.937L166.323 11.178C166.479 11.418 166.641 11.664 166.809 11.916C166.989 12.168 167.169 12.414 167.349 12.654H167.421C167.589 12.414 167.757 12.162 167.925 11.898C168.093 11.634 168.255 11.382 168.411 11.142L169.725 9.252H171.291L168.177 13.59L171.525 18H169.905L168.375 15.984C168.195 15.732 168.003 15.468 167.799 15.192C167.607 14.916 167.415 14.652 167.223 14.4H167.151C166.971 14.664 166.791 14.928 166.611 15.192C166.431 15.444 166.251 15.708 166.071 15.984L164.631 18H163.047ZM250.596 21.762C250.164 21.762 249.78 21.702 249.444 21.582L249.75 20.412C249.87 20.448 249.996 20.478 250.128 20.502C250.272 20.526 250.41 20.538 250.542 20.538C251.154 20.538 251.652 20.358 252.036 19.998C252.42 19.65 252.72 19.206 252.936 18.666L253.206 18.018L249.12 9.252H250.614L252.756 14.094C252.924 14.478 253.098 14.892 253.278 15.336C253.47 15.78 253.656 16.212 253.836 16.632H253.908C254.064 16.212 254.22 15.786 254.376 15.354C254.544 14.91 254.7 14.49 254.844 14.094L256.752 9.252H258.156L254.304 18.72C254.136 19.152 253.944 19.554 253.728 19.926C253.512 20.298 253.254 20.616 252.954 20.88C252.654 21.156 252.306 21.372 251.91 21.528C251.526 21.684 251.088 21.762 250.596 21.762Z" fill="#FBFF35"/>
<path d="M389.825 18V17.208L395.819 10.458H390.491V9.252H397.943V10.044L391.931 16.794H398.105V18H389.825Z" fill="#F1FF9C"/>
<path d="M4.878 98.6925C4.302 98.6925 3.78 98.5905 3.312 98.3865C2.856 98.1825 2.46 97.8885 2.124 97.5045C1.788 97.1085 1.53 96.6285 1.35 96.0645C1.17 95.5005 1.08 94.8525 1.08 94.1205C1.08 93.4125 1.188 92.7765 1.404 92.2125C1.632 91.6365 1.926 91.1505 2.286 90.7545C2.658 90.3585 3.084 90.0525 3.564 89.8365C4.044 89.6205 4.542 89.5125 5.058 89.5125C5.586 89.5125 6.054 89.6145 6.462 89.8185C6.882 90.0105 7.284 90.2865 7.668 90.6465H7.722L7.65 89.0265V85.6605H9.126V98.4765H7.902L7.776 97.3245H7.722C7.362 97.6965 6.93 98.0205 6.426 98.2965C5.934 98.5605 5.418 98.6925 4.878 98.6925ZM5.184 97.4505C6.048 97.4505 6.87 97.0125 7.65 96.1365V91.7805C7.254 91.4085 6.864 91.1445 6.48 90.9885C6.108 90.8325 5.73 90.7545 5.346 90.7545C4.962 90.7545 4.602 90.8385 4.266 91.0065C3.942 91.1625 3.654 91.3905 3.402 91.6905C3.162 91.9785 2.97 92.3265 2.826 92.7345C2.682 93.1425 2.61 93.5985 2.61 94.1025C2.61 95.1585 2.832 95.9805 3.276 96.5685C3.732 97.1565 4.368 97.4505 5.184 97.4505ZM16.733 98.6925C16.073 98.6925 15.455 98.5905 14.879 98.3865C14.315 98.1825 13.817 97.8825 13.385 97.4865C12.965 97.0905 12.629 96.6105 12.377 96.0465C12.137 95.4705 12.017 94.8165 12.017 94.0845C12.017 93.3765 12.137 92.7405 12.377 92.1765C12.629 91.6125 12.959 91.1325 13.367 90.7365C13.787 90.3405 14.261 90.0405 14.789 89.8365C15.329 89.6205 15.893 89.5125 16.481 89.5125C17.105 89.5125 17.663 89.6145 18.155 89.8185C18.659 90.0105 19.079 90.2865 19.415 90.6465C19.763 91.0065 20.027 91.4385 20.207 91.9425C20.387 92.4465 20.477 93.0045 20.477 93.6165C20.477 93.7845 20.471 93.9465 20.459 94.1025C20.447 94.2585 20.429 94.3965 20.405 94.5165H13.511C13.607 95.5125 13.967 96.2625 14.591 96.7665C15.227 97.2585 16.001 97.5045 16.913 97.5045C17.441 97.5045 17.915 97.4325 18.335 97.2885C18.767 97.1325 19.181 96.9285 19.577 96.6765L20.117 97.6485C19.685 97.9365 19.187 98.1825 18.623 98.3865C18.071 98.5905 17.441 98.6925 16.733 98.6925ZM16.517 90.6825C16.157 90.6825 15.809 90.7425 15.473 90.8625C15.149 90.9825 14.855 91.1565 14.591 91.3845C14.327 91.6005 14.105 91.8765 13.925 92.2125C13.745 92.5485 13.619 92.9325 13.547 93.3645H19.127C19.067 92.4645 18.803 91.7925 18.335 91.3485C17.879 90.9045 17.273 90.6825 16.517 90.6825ZM25.9419 98.4765V90.9345H23.4399V89.8185L25.9419 89.7285V88.9905C25.9419 87.9225 26.2239 87.0645 26.7879 86.4165C27.3639 85.7685 28.2579 85.4445 29.4699 85.4445C30.3339 85.4445 31.1739 85.6125 31.9899 85.9485L31.6479 87.0645C31.2879 86.8965 30.9519 86.7885 30.6399 86.7405C30.3399 86.6805 29.9979 86.6505 29.6139 86.6505C28.8219 86.6505 28.2519 86.8545 27.9039 87.2625C27.5679 87.6585 27.3999 88.2165 27.3999 88.9365V89.7285H31.0719V90.9345H27.3999V98.4765H25.9419ZM49.3999 98.6925C48.7159 98.6925 48.0799 98.5905 47.4919 98.3865C46.9159 98.1825 46.4119 97.8885 45.9799 97.5045C45.5479 97.1085 45.2119 96.6285 44.9719 96.0645C44.7319 95.4885 44.6119 94.8405 44.6119 94.1205C44.6119 93.3885 44.7379 92.7405 44.9899 92.1765C45.2539 91.6005 45.6079 91.1145 46.0519 90.7185C46.4959 90.3225 47.0119 90.0225 47.5999 89.8185C48.1999 89.6145 48.8299 89.5125 49.4899 89.5125C50.2099 89.5125 50.8279 89.6385 51.3439 89.8905C51.8719 90.1425 52.3159 90.4425 52.6759 90.7905L51.9379 91.7445C51.5779 91.4325 51.1999 91.1865 50.8039 91.0065C50.4199 90.8265 49.9999 90.7365 49.5439 90.7365C49.0399 90.7365 48.5779 90.8205 48.1579 90.9885C47.7379 91.1445 47.3779 91.3725 47.0779 91.6725C46.7899 91.9725 46.5619 92.3325 46.3939 92.7525C46.2259 93.1605 46.1419 93.6165 46.1419 94.1205C46.1419 94.6245 46.2199 95.0805 46.3759 95.4885C46.5439 95.8965 46.7719 96.2505 47.0599 96.5505C47.3599 96.8385 47.7139 97.0665 48.1219 97.2345C48.5419 97.3905 49.0039 97.4685 49.5079 97.4685C50.0479 97.4685 50.5399 97.3665 50.9839 97.1625C51.4399 96.9465 51.8479 96.6825 52.2079 96.3705L52.8739 97.3245C52.3819 97.7565 51.8419 98.0925 51.2539 98.3325C50.6659 98.5725 50.0479 98.6925 49.3999 98.6925ZM59.3648 98.6925C58.7888 98.6925 58.2368 98.5905 57.7088 98.3865C57.1928 98.1825 56.7368 97.8885 56.3408 97.5045C55.9448 97.1085 55.6268 96.6285 55.3868 96.0645C55.1588 95.4885 55.0448 94.8405 55.0448 94.1205C55.0448 93.3885 55.1588 92.7405 55.3868 92.1765C55.6268 91.6005 55.9448 91.1145 56.3408 90.7185C56.7368 90.3225 57.1928 90.0225 57.7088 89.8185C58.2368 89.6145 58.7888 89.5125 59.3648 89.5125C59.9408 89.5125 60.4868 89.6145 61.0028 89.8185C61.5308 90.0225 61.9928 90.3225 62.3888 90.7185C62.7848 91.1145 63.0968 91.6005 63.3248 92.1765C63.5648 92.7405 63.6848 93.3885 63.6848 94.1205C63.6848 94.8405 63.5648 95.4885 63.3248 96.0645C63.0968 96.6285 62.7848 97.1085 62.3888 97.5045C61.9928 97.8885 61.5308 98.1825 61.0028 98.3865C60.4868 98.5905 59.9408 98.6925 59.3648 98.6925ZM59.3648 97.4685C59.7848 97.4685 60.1628 97.3905 60.4988 97.2345C60.8468 97.0665 61.1408 96.8385 61.3808 96.5505C61.6328 96.2505 61.8248 95.8965 61.9568 95.4885C62.0888 95.0805 62.1548 94.6245 62.1548 94.1205C62.1548 93.6165 62.0888 93.1605 61.9568 92.7525C61.8248 92.3325 61.6328 91.9725 61.3808 91.6725C61.1408 91.3725 60.8468 91.1445 60.4988 90.9885C60.1628 90.8205 59.7848 90.7365 59.3648 90.7365C58.9448 90.7365 58.5608 90.8205 58.2128 90.9885C57.8768 91.1445 57.5828 91.3725 57.3308 91.6725C57.0908 91.9725 56.9048 92.3325 56.7728 92.7525C56.6408 93.1605 56.5748 93.6165 56.5748 94.1205C56.5748 94.6245 56.6408 95.0805 56.7728 95.4885C56.9048 95.8965 57.0908 96.2505 57.3308 96.5505C57.5828 96.8385 57.8768 97.0665 58.2128 97.2345C58.5608 97.3905 58.9448 97.4685 59.3648 97.4685ZM65.8018 98.4765V89.7285H66.9898L67.1158 90.8805H67.1518C67.3798 90.4725 67.6438 90.1425 67.9438 89.8905C68.2438 89.6385 68.6458 89.5125 69.1498 89.5125C70.0018 89.5125 70.5538 90.0165 70.8058 91.0245C71.0578 90.5565 71.3338 90.1905 71.6338 89.9265C71.9458 89.6505 72.3538 89.5125 72.8578 89.5125C73.4698 89.5125 73.9438 89.7465 74.2798 90.2145C74.6278 90.6705 74.8018 91.3365 74.8018 92.2125V98.4765H73.3258V92.3205C73.3258 91.3005 73.0138 90.7905 72.3898 90.7905C72.0778 90.7905 71.8258 90.9045 71.6338 91.1325C71.4418 91.3485 71.2258 91.6845 70.9858 92.1405V98.4765H69.6178V92.3205C69.6178 91.8165 69.5458 91.4385 69.4018 91.1865C69.2698 90.9225 69.0418 90.7905 68.7178 90.7905C68.4058 90.7905 68.1418 90.9045 67.9258 91.1325C67.7098 91.3485 67.4938 91.6845 67.2778 92.1405V98.4765H65.8018ZM77.2248 102.167V89.7285H78.4488L78.5748 90.8445H78.6288C79.0368 90.4605 79.5048 90.1425 80.0328 89.8905C80.5728 89.6385 81.1128 89.5125 81.6528 89.5125C82.2408 89.5125 82.7568 89.6205 83.2008 89.8365C83.6568 90.0405 84.0348 90.3405 84.3348 90.7365C84.6468 91.1205 84.8808 91.5885 85.0368 92.1405C85.1928 92.6805 85.2708 93.2925 85.2708 93.9765C85.2708 94.7205 85.1628 95.3865 84.9468 95.9745C84.7308 96.5505 84.4368 97.0425 84.0648 97.4505C83.7048 97.8585 83.2848 98.1705 82.8048 98.3865C82.3248 98.5905 81.8208 98.6925 81.2928 98.6925C80.8848 98.6925 80.4408 98.5965 79.9608 98.4045C79.4928 98.2005 79.0668 97.9185 78.6828 97.5585H78.6288L78.7008 99.2145V102.167H77.2248ZM81.0408 97.4505C81.8328 97.4505 82.4808 97.1445 82.9848 96.5325C83.4888 95.9205 83.7408 95.0685 83.7408 93.9765C83.7408 93.4965 83.6928 93.0585 83.5968 92.6625C83.5008 92.2665 83.3508 91.9305 83.1468 91.6545C82.9548 91.3665 82.7028 91.1445 82.3908 90.9885C82.0788 90.8325 81.7068 90.7545 81.2748 90.7545C80.8908 90.7545 80.4768 90.8625 80.0328 91.0785C79.6008 91.2825 79.1568 91.6125 78.7008 92.0685V96.4245C79.1208 96.7965 79.5408 97.0605 79.9608 97.2165C80.3808 97.3725 80.7408 97.4505 81.0408 97.4505ZM91.7438 92.2485C91.3358 92.2485 90.9878 92.1105 90.6998 91.8345C90.4238 91.5585 90.2858 91.1925 90.2858 90.7365C90.2858 90.2805 90.4238 89.9145 90.6998 89.6385C90.9878 89.3505 91.3358 89.2065 91.7438 89.2065C92.1518 89.2065 92.4938 89.3505 92.7698 89.6385C93.0578 89.9145 93.2018 90.2805 93.2018 90.7365C93.2018 91.1925 93.0578 91.5585 92.7698 91.8345C92.4938 92.1105 92.1518 92.2485 91.7438 92.2485ZM91.7438 98.6925C91.3358 98.6925 90.9878 98.5545 90.6998 98.2785C90.4238 98.0025 90.2858 97.6365 90.2858 97.1805C90.2858 96.7245 90.4238 96.3585 90.6998 96.0825C90.9878 95.7945 91.3358 95.6505 91.7438 95.6505C92.1518 95.6505 92.4938 95.7945 92.7698 96.0825C93.0578 96.3585 93.2018 96.7245 93.2018 97.1805C93.2018 97.6365 93.0578 98.0025 92.7698 98.2785C92.4938 98.5545 92.1518 98.6925 91.7438 98.6925ZM115.724 101.645C114.476 100.673 113.486 99.5025 112.754 98.1345C112.034 96.7665 111.674 95.2125 111.674 93.4725C111.674 91.7325 112.034 90.1785 112.754 88.8105C113.486 87.4425 114.476 86.2725 115.724 85.3005L116.534 86.0565C115.322 87.0765 114.428 88.1865 113.852 89.3865C113.288 90.5865 113.006 91.9485 113.006 93.4725C113.006 94.9965 113.288 96.3585 113.852 97.5585C114.428 98.7585 115.322 99.8685 116.534 100.889L115.724 101.645ZM178.088 92.2485C177.68 92.2485 177.332 92.1105 177.044 91.8345C176.768 91.5585 176.63 91.1925 176.63 90.7365C176.63 90.2805 176.768 89.9145 177.044 89.6385C177.332 89.3505 177.68 89.2065 178.088 89.2065C178.496 89.2065 178.838 89.3505 179.114 89.6385C179.402 89.9145 179.546 90.2805 179.546 90.7365C179.546 91.1925 179.402 91.5585 179.114 91.8345C178.838 92.1105 178.496 92.2485 178.088 92.2485ZM178.088 98.6925C177.68 98.6925 177.332 98.5545 177.044 98.2785C176.768 98.0025 176.63 97.6365 176.63 97.1805C176.63 96.7245 176.768 96.3585 177.044 96.0825C177.332 95.7945 177.68 95.6505 178.088 95.6505C178.496 95.6505 178.838 95.7945 179.114 96.0825C179.402 96.3585 179.546 96.7245 179.546 97.1805C179.546 97.6365 179.402 98.0025 179.114 98.2785C178.838 98.5545 178.496 98.6925 178.088 98.6925ZM200.591 98.6925C199.859 98.6925 199.181 98.5545 198.557 98.2785C197.933 98.0025 197.387 97.6065 196.919 97.0905C196.463 96.5625 196.103 95.9205 195.839 95.1645C195.575 94.3965 195.443 93.5325 195.443 92.5725C195.443 91.6245 195.575 90.7725 195.839 90.0165C196.103 89.2605 196.469 88.6185 196.937 88.0905C197.405 87.5625 197.963 87.1605 198.611 86.8845C199.259 86.5965 199.967 86.4525 200.735 86.4525C201.443 86.4525 202.067 86.5965 202.607 86.8845C203.159 87.1725 203.609 87.5085 203.957 87.8925L203.111 88.8465C202.799 88.5225 202.451 88.2645 202.067 88.0725C201.683 87.8685 201.239 87.7665 200.735 87.7665C200.171 87.7665 199.655 87.8805 199.187 88.1085C198.731 88.3245 198.341 88.6425 198.017 89.0625C197.693 89.4705 197.441 89.9685 197.261 90.5565C197.081 91.1445 196.991 91.8045 196.991 92.5365C196.991 93.2805 197.081 93.9525 197.261 94.5525C197.441 95.1405 197.693 95.6445 198.017 96.0645C198.341 96.4845 198.731 96.8085 199.187 97.0365C199.655 97.2645 200.171 97.3785 200.735 97.3785C201.275 97.3785 201.755 97.2645 202.175 97.0365C202.607 96.8085 203.015 96.4845 203.399 96.0645L204.245 96.9825C203.777 97.5225 203.249 97.9425 202.661 98.2425C202.073 98.5425 201.383 98.6925 200.591 98.6925ZM208.072 101.645L207.262 100.889C208.474 99.8685 209.362 98.7585 209.926 97.5585C210.502 96.3585 210.79 94.9965 210.79 93.4725C210.79 91.9485 210.502 90.5865 209.926 89.3865C209.362 88.1865 208.474 87.0765 207.262 86.0565L208.072 85.3005C209.32 86.2725 210.304 87.4425 211.024 88.8105C211.756 90.1785 212.122 91.7325 212.122 93.4725C212.122 95.2125 211.756 96.7665 211.024 98.1345C210.304 99.5025 209.32 100.673 208.072 101.645ZM232.214 98.7465L231.458 97.9185L235.076 94.5525H227.174V93.3285H235.076L231.458 89.9625L232.214 89.1345L237.128 93.9045V93.9765L232.214 98.7465ZM256.032 101.645C254.784 100.673 253.794 99.5025 253.062 98.1345C252.342 96.7665 251.982 95.2125 251.982 93.4725C251.982 91.7325 252.342 90.1785 253.062 88.8105C253.794 87.4425 254.784 86.2725 256.032 85.3005L256.842 86.0565C255.63 87.0765 254.736 88.1865 254.16 89.3865C253.596 90.5865 253.314 91.9485 253.314 93.4725C253.314 94.9965 253.596 96.3585 254.16 97.5585C254.736 98.7585 255.63 99.8685 256.842 100.889L256.032 101.645ZM275.224 92.2485C274.816 92.2485 274.468 92.1105 274.18 91.8345C273.904 91.5585 273.766 91.1925 273.766 90.7365C273.766 90.2805 273.904 89.9145 274.18 89.6385C274.468 89.3505 274.816 89.2065 275.224 89.2065C275.632 89.2065 275.974 89.3505 276.25 89.6385C276.538 89.9145 276.682 90.2805 276.682 90.7365C276.682 91.1925 276.538 91.5585 276.25 91.8345C275.974 92.1105 275.632 92.2485 275.224 92.2485ZM275.224 98.6925C274.816 98.6925 274.468 98.5545 274.18 98.2785C273.904 98.0025 273.766 97.6365 273.766 97.1805C273.766 96.7245 273.904 96.3585 274.18 96.0825C274.468 95.7945 274.816 95.6505 275.224 95.6505C275.632 95.6505 275.974 95.7945 276.25 96.0825C276.538 96.3585 276.682 96.7245 276.682 97.1805C276.682 97.6365 276.538 98.0025 276.25 98.2785C275.974 98.5545 275.632 98.6925 275.224 98.6925ZM292.562 98.4765L295.892 93.9405L292.814 89.7285H294.452L295.838 91.6545C295.994 91.8945 296.156 92.1405 296.324 92.3925C296.504 92.6445 296.684 92.8905 296.864 93.1305H296.936C297.104 92.8905 297.272 92.6385 297.44 92.3745C297.608 92.1105 297.77 91.8585 297.926 91.6185L299.24 89.7285H300.806L297.692 94.0665L301.04 98.4765H299.42L297.89 96.4605C297.71 96.2085 297.518 95.9445 297.314 95.6685C297.122 95.3925 296.93 95.1285 296.738 94.8765H296.666C296.486 95.1405 296.306 95.4045 296.126 95.6685C295.946 95.9205 295.766 96.1845 295.586 96.4605L294.146 98.4765H292.562ZM318.558 98.7465L317.802 97.9185L321.42 94.5525H313.518V93.3285H321.42L317.802 89.9625L318.558 89.1345L323.472 93.9045V93.9765L318.558 98.7465ZM336.94 102.239C336.508 102.239 336.124 102.179 335.788 102.059L336.094 100.889C336.214 100.925 336.34 100.955 336.472 100.979C336.616 101.003 336.754 101.015 336.886 101.015C337.498 101.015 337.996 100.835 338.38 100.475C338.764 100.127 339.064 99.6825 339.28 99.1425L339.55 98.4945L335.464 89.7285H336.958L339.1 94.5705C339.268 94.9545 339.442 95.3685 339.622 95.8125C339.814 96.2565 340 96.6885 340.18 97.1085H340.252C340.408 96.6885 340.564 96.2625 340.72 95.8305C340.888 95.3865 341.044 94.9665 341.188 94.5705L343.096 89.7285H344.5L340.648 99.1965C340.48 99.6285 340.288 100.031 340.072 100.403C339.856 100.775 339.598 101.093 339.298 101.357C338.998 101.633 338.65 101.849 338.254 102.005C337.87 102.161 337.432 102.239 336.94 102.239ZM348.381 101.645L347.571 100.889C348.783 99.8685 349.671 98.7585 350.235 97.5585C350.811 96.3585 351.099 94.9965 351.099 93.4725C351.099 91.9485 350.811 90.5865 350.235 89.3865C349.671 88.1865 348.783 87.0765 347.571 86.0565L348.381 85.3005C349.629 86.2725 350.613 87.4425 351.333 88.8105C352.065 90.1785 352.431 91.7325 352.431 93.4725C352.431 95.2125 352.065 96.7665 351.333 98.1345C350.613 99.5025 349.629 100.673 348.381 101.645ZM372.523 98.7465L371.767 97.9185L375.385 94.5525H367.483V93.3285H375.385L371.767 89.9625L372.523 89.1345L377.437 93.9045V93.9765L372.523 98.7465ZM396.341 101.645C395.093 100.673 394.103 99.5025 393.371 98.1345C392.651 96.7665 392.291 95.2125 392.291 93.4725C392.291 91.7325 392.651 90.1785 393.371 88.8105C394.103 87.4425 395.093 86.2725 396.341 85.3005L397.151 86.0565C395.939 87.0765 395.045 88.1865 394.469 89.3865C393.905 90.5865 393.623 91.9485 393.623 93.4725C393.623 94.9965 393.905 96.3585 394.469 97.5585C395.045 98.7585 395.939 99.8685 397.151 100.889L396.341 101.645ZM415.533 92.2485C415.125 92.2485 414.777 92.1105 414.489 91.8345C414.213 91.5585 414.075 91.1925 414.075 90.7365C414.075 90.2805 414.213 89.9145 414.489 89.6385C414.777 89.3505 415.125 89.2065 415.533 89.2065C415.941 89.2065 416.283 89.3505 416.559 89.6385C416.847 89.9145 416.991 90.2805 416.991 90.7365C416.991 91.1925 416.847 91.5585 416.559 91.8345C416.283 92.1105 415.941 92.2485 415.533 92.2485ZM415.533 98.6925C415.125 98.6925 414.777 98.5545 414.489 98.2785C414.213 98.0025 414.075 97.6365 414.075 97.1805C414.075 96.7245 414.213 96.3585 414.489 96.0825C414.777 95.7945 415.125 95.6505 415.533 95.6505C415.941 95.6505 416.283 95.7945 416.559 96.0825C416.847 96.3585 416.991 96.7245 416.991 97.1805C416.991 97.6365 416.847 98.0025 416.559 98.2785C416.283 98.5545 415.941 98.6925 415.533 98.6925ZM434.077 102.239C433.645 102.239 433.261 102.179 432.925 102.059L433.231 100.889C433.351 100.925 433.477 100.955 433.609 100.979C433.753 101.003 433.891 101.015 434.023 101.015C434.635 101.015 435.133 100.835 435.517 100.475C435.901 100.127 436.201 99.6825 436.417 99.1425L436.687 98.4945L432.601 89.7285H434.095L436.237 94.5705C436.405 94.9545 436.579 95.3685 436.759 95.8125C436.951 96.2565 437.137 96.6885 437.317 97.1085H437.389C437.545 96.6885 437.701 96.2625 437.857 95.8305C438.025 95.3865 438.181 94.9665 438.325 94.5705L440.233 89.7285H441.637L437.785 99.1965C437.617 99.6285 437.425 100.031 437.209 100.403C436.993 100.775 436.735 101.093 436.435 101.357C436.135 101.633 435.787 101.849 435.391 102.005C435.007 102.161 434.569 102.239 434.077 102.239ZM458.867 98.7465L458.111 97.9185L461.729 94.5525H453.827V93.3285H461.729L458.111 89.9625L458.867 89.1345L463.781 93.9045V93.9765L458.867 98.7465ZM476.169 98.4765V97.6845L482.163 90.9345H476.835V89.7285H484.287V90.5205L478.275 97.2705H484.449V98.4765H476.169ZM488.69 101.645L487.88 100.889C489.092 99.8685 489.98 98.7585 490.544 97.5585C491.12 96.3585 491.408 94.9965 491.408 93.4725C491.408 91.9485 491.12 90.5865 490.544 89.3865C489.98 88.1865 489.092 87.0765 487.88 86.0565L488.69 85.3005C489.938 86.2725 490.922 87.4425 491.642 88.8105C492.374 90.1785 492.74 91.7325 492.74 93.4725C492.74 95.2125 492.374 96.7665 491.642 98.1345C490.922 99.5025 489.938 100.673 488.69 101.645Z" fill="white"/>
<path d="M119.875 98.4765L123.205 93.9405L120.127 89.7285H121.765L123.151 91.6545C123.307 91.8945 123.469 92.1405 123.637 92.3925C123.817 92.6445 123.997 92.8905 124.177 93.1305H124.249C124.417 92.8905 124.585 92.6385 124.753 92.3745C124.921 92.1105 125.083 91.8585 125.239 91.6185L126.553 89.7285H128.119L125.005 94.0665L128.353 98.4765H126.733L125.203 96.4605C125.023 96.2085 124.831 95.9445 124.627 95.6685C124.435 95.3925 124.243 95.1285 124.051 94.8765H123.979C123.799 95.1405 123.619 95.4045 123.439 95.6685C123.259 95.9205 123.079 96.1845 122.899 96.4605L121.459 98.4765H119.875ZM142.667 102.239C142.235 102.239 141.851 102.179 141.515 102.059L141.821 100.889C141.941 100.925 142.067 100.955 142.199 100.979C142.343 101.003 142.481 101.015 142.613 101.015C143.225 101.015 143.723 100.835 144.107 100.475C144.491 100.127 144.791 99.6825 145.007 99.1425L145.277 98.4945L141.191 89.7285H142.685L144.827 94.5705C144.995 94.9545 145.169 95.3685 145.349 95.8125C145.541 96.2565 145.727 96.6885 145.907 97.1085H145.979C146.135 96.6885 146.291 96.2625 146.447 95.8305C146.615 95.3865 146.771 94.9665 146.915 94.5705L148.823 89.7285H150.227L146.375 99.1965C146.207 99.6285 146.015 100.031 145.799 100.403C145.583 100.775 145.325 101.093 145.025 101.357C144.725 101.633 144.377 101.849 143.981 102.005C143.597 102.161 143.159 102.239 142.667 102.239ZM163.173 98.4765V97.6845L169.167 90.9345H163.839V89.7285H171.291V90.5205L165.279 97.2705H171.453V98.4765H163.173Z" fill="#FBFF35"/>
<path d="M263.387 98.4765V90.9345H260.885V89.8185L263.387 89.7285V88.9905C263.387 87.9225 263.669 87.0645 264.233 86.4165C264.809 85.7685 265.703 85.4445 266.915 85.4445C267.779 85.4445 268.619 85.6125 269.435 85.9485L269.093 87.0645C268.733 86.8965 268.397 86.7885 268.085 86.7405C267.785 86.6805 267.443 86.6505 267.059 86.6505C266.267 86.6505 265.697 86.8545 265.349 87.2625C265.013 87.6585 264.845 88.2165 264.845 88.9365V89.7285H268.517V90.9345H264.845V98.4765H263.387ZM404.668 102.509C403.384 102.509 402.388 102.299 401.68 101.879C400.984 101.459 400.636 100.859 400.636 100.079C400.636 99.7305 400.756 99.3885 400.996 99.0525C401.248 98.7165 401.608 98.4105 402.076 98.1345V98.0625C401.836 97.9305 401.626 97.7505 401.446 97.5225C401.266 97.2945 401.176 96.9945 401.176 96.6225C401.176 96.3465 401.266 96.0645 401.446 95.7765C401.626 95.4765 401.884 95.2125 402.22 94.9845V94.9125C401.92 94.6845 401.662 94.3845 401.446 94.0125C401.242 93.6285 401.14 93.1725 401.14 92.6445C401.14 92.1645 401.23 91.7325 401.41 91.3485C401.602 90.9645 401.854 90.6405 402.166 90.3765C402.478 90.1005 402.838 89.8905 403.246 89.7465C403.666 89.5905 404.11 89.5125 404.578 89.5125C405.058 89.5125 405.49 89.5845 405.874 89.7285H409.492V90.9345H407.224C407.428 91.1385 407.602 91.3965 407.746 91.7085C407.89 92.0205 407.962 92.3505 407.962 92.6985C407.962 93.1665 407.872 93.5865 407.692 93.9585C407.524 94.3305 407.284 94.6485 406.972 94.9125C406.672 95.1645 406.312 95.3625 405.892 95.5065C405.484 95.6385 405.046 95.7045 404.578 95.7045C404.35 95.7045 404.104 95.6805 403.84 95.6325C403.588 95.5725 403.342 95.4885 403.102 95.3805C402.646 95.6685 402.418 96.0045 402.418 96.3885C402.418 96.7365 402.574 96.9945 402.886 97.1625C403.21 97.3185 403.66 97.3965 404.236 97.3965H406.198C407.326 97.3965 408.16 97.5525 408.7 97.8645C409.252 98.1765 409.528 98.7045 409.528 99.4485C409.528 99.8565 409.414 100.247 409.186 100.619C408.958 100.991 408.634 101.315 408.214 101.591C407.794 101.867 407.284 102.089 406.684 102.257C406.084 102.425 405.412 102.509 404.668 102.509ZM404.578 94.7145C405.142 94.7145 405.616 94.5285 406 94.1565C406.396 93.7845 406.594 93.2805 406.594 92.6445C406.594 92.3445 406.54 92.0685 406.432 91.8165C406.324 91.5645 406.18 91.3485 406 91.1685C405.82 90.9885 405.604 90.8505 405.352 90.7545C405.112 90.6465 404.854 90.5925 404.578 90.5925C404.302 90.5925 404.038 90.6465 403.786 90.7545C403.546 90.8505 403.336 90.9885 403.156 91.1685C402.976 91.3485 402.832 91.5645 402.724 91.8165C402.616 92.0685 402.562 92.3445 402.562 92.6445C402.562 93.2805 402.76 93.7845 403.156 94.1565C403.552 94.5285 404.026 94.7145 404.578 94.7145ZM404.776 101.429C405.28 101.429 405.736 101.381 406.144 101.285C406.552 101.189 406.9 101.057 407.188 100.889C407.476 100.733 407.692 100.547 407.836 100.331C407.992 100.127 408.07 99.9105 408.07 99.6825C408.07 99.2625 407.902 98.9805 407.566 98.8365C407.242 98.6925 406.744 98.6205 406.072 98.6205H404.362C404.11 98.6205 403.87 98.6085 403.642 98.5845C403.426 98.5725 403.222 98.5365 403.03 98.4765C402.61 98.7045 402.316 98.9385 402.148 99.1785C401.992 99.4305 401.914 99.6825 401.914 99.9345C401.914 100.391 402.154 100.751 402.634 101.015C403.126 101.291 403.84 101.429 404.776 101.429Z" fill="#FFBA69"/>
<path d="M4.878 189.082C4.302 189.082 3.78 188.98 3.312 188.776C2.856 188.572 2.46 188.278 2.124 187.894C1.788 187.498 1.53 187.018 1.35 186.454C1.17 185.89 1.08 185.242 1.08 184.51C1.08 183.802 1.188 183.166 1.404 182.602C1.632 182.026 1.926 181.54 2.286 181.144C2.658 180.748 3.084 180.442 3.564 180.226C4.044 180.01 4.542 179.902 5.058 179.902C5.586 179.902 6.054 180.004 6.462 180.208C6.882 180.4 7.284 180.676 7.668 181.036H7.722L7.65 179.416V176.05H9.126V188.866H7.902L7.776 187.714H7.722C7.362 188.086 6.93 188.41 6.426 188.686C5.934 188.95 5.418 189.082 4.878 189.082ZM5.184 187.84C6.048 187.84 6.87 187.402 7.65 186.526V182.17C7.254 181.798 6.864 181.534 6.48 181.378C6.108 181.222 5.73 181.144 5.346 181.144C4.962 181.144 4.602 181.228 4.266 181.396C3.942 181.552 3.654 181.78 3.402 182.08C3.162 182.368 2.97 182.716 2.826 183.124C2.682 183.532 2.61 183.988 2.61 184.492C2.61 185.548 2.832 186.37 3.276 186.958C3.732 187.546 4.368 187.84 5.184 187.84ZM16.733 189.082C16.073 189.082 15.455 188.98 14.879 188.776C14.315 188.572 13.817 188.272 13.385 187.876C12.965 187.48 12.629 187 12.377 186.436C12.137 185.86 12.017 185.206 12.017 184.474C12.017 183.766 12.137 183.13 12.377 182.566C12.629 182.002 12.959 181.522 13.367 181.126C13.787 180.73 14.261 180.43 14.789 180.226C15.329 180.01 15.893 179.902 16.481 179.902C17.105 179.902 17.663 180.004 18.155 180.208C18.659 180.4 19.079 180.676 19.415 181.036C19.763 181.396 20.027 181.828 20.207 182.332C20.387 182.836 20.477 183.394 20.477 184.006C20.477 184.174 20.471 184.336 20.459 184.492C20.447 184.648 20.429 184.786 20.405 184.906H13.511C13.607 185.902 13.967 186.652 14.591 187.156C15.227 187.648 16.001 187.894 16.913 187.894C17.441 187.894 17.915 187.822 18.335 187.678C18.767 187.522 19.181 187.318 19.577 187.066L20.117 188.038C19.685 188.326 19.187 188.572 18.623 188.776C18.071 188.98 17.441 189.082 16.733 189.082ZM16.517 181.072C16.157 181.072 15.809 181.132 15.473 181.252C15.149 181.372 14.855 181.546 14.591 181.774C14.327 181.99 14.105 182.266 13.925 182.602C13.745 182.938 13.619 183.322 13.547 183.754H19.127C19.067 182.854 18.803 182.182 18.335 181.738C17.879 181.294 17.273 181.072 16.517 181.072ZM25.9419 188.866V181.324H23.4399V180.208L25.9419 180.118V179.38C25.9419 178.312 26.2239 177.454 26.7879 176.806C27.3639 176.158 28.2579 175.834 29.4699 175.834C30.3339 175.834 31.1739 176.002 31.9899 176.338L31.6479 177.454C31.2879 177.286 30.9519 177.178 30.6399 177.13C30.3399 177.07 29.9979 177.04 29.6139 177.04C28.8219 177.04 28.2519 177.244 27.9039 177.652C27.5679 178.048 27.3999 178.606 27.3999 179.326V180.118H31.0719V181.324H27.3999V188.866H25.9419ZM49.3999 189.082C48.7159 189.082 48.0799 188.98 47.4919 188.776C46.9159 188.572 46.4119 188.278 45.9799 187.894C45.5479 187.498 45.2119 187.018 44.9719 186.454C44.7319 185.878 44.6119 185.23 44.6119 184.51C44.6119 183.778 44.7379 183.13 44.9899 182.566C45.2539 181.99 45.6079 181.504 46.0519 181.108C46.4959 180.712 47.0119 180.412 47.5999 180.208C48.1999 180.004 48.8299 179.902 49.4899 179.902C50.2099 179.902 50.8279 180.028 51.3439 180.28C51.8719 180.532 52.3159 180.832 52.6759 181.18L51.9379 182.134C51.5779 181.822 51.1999 181.576 50.8039 181.396C50.4199 181.216 49.9999 181.126 49.5439 181.126C49.0399 181.126 48.5779 181.21 48.1579 181.378C47.7379 181.534 47.3779 181.762 47.0779 182.062C46.7899 182.362 46.5619 182.722 46.3939 183.142C46.2259 183.55 46.1419 184.006 46.1419 184.51C46.1419 185.014 46.2199 185.47 46.3759 185.878C46.5439 186.286 46.7719 186.64 47.0599 186.94C47.3599 187.228 47.7139 187.456 48.1219 187.624C48.5419 187.78 49.0039 187.858 49.5079 187.858C50.0479 187.858 50.5399 187.756 50.9839 187.552C51.4399 187.336 51.8479 187.072 52.2079 186.76L52.8739 187.714C52.3819 188.146 51.8419 188.482 51.2539 188.722C50.6659 188.962 50.0479 189.082 49.3999 189.082ZM59.3648 189.082C58.7888 189.082 58.2368 188.98 57.7088 188.776C57.1928 188.572 56.7368 188.278 56.3408 187.894C55.9448 187.498 55.6268 187.018 55.3868 186.454C55.1588 185.878 55.0448 185.23 55.0448 184.51C55.0448 183.778 55.1588 183.13 55.3868 182.566C55.6268 181.99 55.9448 181.504 56.3408 181.108C56.7368 180.712 57.1928 180.412 57.7088 180.208C58.2368 180.004 58.7888 179.902 59.3648 179.902C59.9408 179.902 60.4868 180.004 61.0028 180.208C61.5308 180.412 61.9928 180.712 62.3888 181.108C62.7848 181.504 63.0968 181.99 63.3248 182.566C63.5648 183.13 63.6848 183.778 63.6848 184.51C63.6848 185.23 63.5648 185.878 63.3248 186.454C63.0968 187.018 62.7848 187.498 62.3888 187.894C61.9928 188.278 61.5308 188.572 61.0028 188.776C60.4868 188.98 59.9408 189.082 59.3648 189.082ZM59.3648 187.858C59.7848 187.858 60.1628 187.78 60.4988 187.624C60.8468 187.456 61.1408 187.228 61.3808 186.94C61.6328 186.64 61.8248 186.286 61.9568 185.878C62.0888 185.47 62.1548 185.014 62.1548 184.51C62.1548 184.006 62.0888 183.55 61.9568 183.142C61.8248 182.722 61.6328 182.362 61.3808 182.062C61.1408 181.762 60.8468 181.534 60.4988 181.378C60.1628 181.21 59.7848 181.126 59.3648 181.126C58.9448 181.126 58.5608 181.21 58.2128 181.378C57.8768 181.534 57.5828 181.762 57.3308 182.062C57.0908 182.362 56.9048 182.722 56.7728 183.142C56.6408 183.55 56.5748 184.006 56.5748 184.51C56.5748 185.014 56.6408 185.47 56.7728 185.878C56.9048 186.286 57.0908 186.64 57.3308 186.94C57.5828 187.228 57.8768 187.456 58.2128 187.624C58.5608 187.78 58.9448 187.858 59.3648 187.858ZM65.8018 188.866V180.118H66.9898L67.1158 181.27H67.1518C67.3798 180.862 67.6438 180.532 67.9438 180.28C68.2438 180.028 68.6458 179.902 69.1498 179.902C70.0018 179.902 70.5538 180.406 70.8058 181.414C71.0578 180.946 71.3338 180.58 71.6338 180.316C71.9458 180.04 72.3538 179.902 72.8578 179.902C73.4698 179.902 73.9438 180.136 74.2798 180.604C74.6278 181.06 74.8018 181.726 74.8018 182.602V188.866H73.3258V182.71C73.3258 181.69 73.0138 181.18 72.3898 181.18C72.0778 181.18 71.8258 181.294 71.6338 181.522C71.4418 181.738 71.2258 182.074 70.9858 182.53V188.866H69.6178V182.71C69.6178 182.206 69.5458 181.828 69.4018 181.576C69.2698 181.312 69.0418 181.18 68.7178 181.18C68.4058 181.18 68.1418 181.294 67.9258 181.522C67.7098 181.738 67.4938 182.074 67.2778 182.53V188.866H65.8018ZM77.2248 192.556V180.118H78.4488L78.5748 181.234H78.6288C79.0368 180.85 79.5048 180.532 80.0328 180.28C80.5728 180.028 81.1128 179.902 81.6528 179.902C82.2408 179.902 82.7568 180.01 83.2008 180.226C83.6568 180.43 84.0348 180.73 84.3348 181.126C84.6468 181.51 84.8808 181.978 85.0368 182.53C85.1928 183.07 85.2708 183.682 85.2708 184.366C85.2708 185.11 85.1628 185.776 84.9468 186.364C84.7308 186.94 84.4368 187.432 84.0648 187.84C83.7048 188.248 83.2848 188.56 82.8048 188.776C82.3248 188.98 81.8208 189.082 81.2928 189.082C80.8848 189.082 80.4408 188.986 79.9608 188.794C79.4928 188.59 79.0668 188.308 78.6828 187.948H78.6288L78.7008 189.604V192.556H77.2248ZM81.0408 187.84C81.8328 187.84 82.4808 187.534 82.9848 186.922C83.4888 186.31 83.7408 185.458 83.7408 184.366C83.7408 183.886 83.6928 183.448 83.5968 183.052C83.5008 182.656 83.3508 182.32 83.1468 182.044C82.9548 181.756 82.7028 181.534 82.3908 181.378C82.0788 181.222 81.7068 181.144 81.2748 181.144C80.8908 181.144 80.4768 181.252 80.0328 181.468C79.6008 181.672 79.1568 182.002 78.7008 182.458V186.814C79.1208 187.186 79.5408 187.45 79.9608 187.606C80.3808 187.762 80.7408 187.84 81.0408 187.84ZM91.7438 182.638C91.3358 182.638 90.9878 182.5 90.6998 182.224C90.4238 181.948 90.2858 181.582 90.2858 181.126C90.2858 180.67 90.4238 180.304 90.6998 180.028C90.9878 179.74 91.3358 179.596 91.7438 179.596C92.1518 179.596 92.4938 179.74 92.7698 180.028C93.0578 180.304 93.2018 180.67 93.2018 181.126C93.2018 181.582 93.0578 181.948 92.7698 182.224C92.4938 182.5 92.1518 182.638 91.7438 182.638ZM91.7438 189.082C91.3358 189.082 90.9878 188.944 90.6998 188.668C90.4238 188.392 90.2858 188.026 90.2858 187.57C90.2858 187.114 90.4238 186.748 90.6998 186.472C90.9878 186.184 91.3358 186.04 91.7438 186.04C92.1518 186.04 92.4938 186.184 92.7698 186.472C93.0578 186.748 93.2018 187.114 93.2018 187.57C93.2018 188.026 93.0578 188.392 92.7698 188.668C92.4938 188.944 92.1518 189.082 91.7438 189.082ZM115.868 191.602C115.304 191.602 114.812 191.56 114.392 191.476C113.972 191.404 113.624 191.278 113.348 191.098C113.072 190.918 112.868 190.672 112.736 190.36C112.604 190.06 112.538 189.676 112.538 189.208C112.538 188.884 112.544 188.578 112.556 188.29C112.58 187.99 112.598 187.702 112.61 187.426C112.634 187.15 112.652 186.874 112.664 186.598C112.688 186.322 112.7 186.034 112.7 185.734C112.7 185.554 112.664 185.386 112.592 185.23C112.52 185.062 112.388 184.912 112.196 184.78C112.004 184.648 111.734 184.54 111.386 184.456C111.05 184.372 110.618 184.33 110.09 184.33V183.394C110.618 183.394 111.05 183.352 111.386 183.268C111.734 183.184 112.004 183.076 112.196 182.944C112.388 182.812 112.52 182.668 112.592 182.512C112.664 182.344 112.7 182.17 112.7 181.99C112.7 181.414 112.67 180.85 112.61 180.298C112.562 179.734 112.538 179.14 112.538 178.516C112.538 178.048 112.604 177.664 112.736 177.364C112.868 177.052 113.072 176.806 113.348 176.626C113.624 176.446 113.972 176.32 114.392 176.248C114.812 176.164 115.304 176.122 115.868 176.122H116.966V176.968H116.03C115.574 176.968 115.196 176.998 114.896 177.058C114.608 177.118 114.38 177.214 114.212 177.346C114.056 177.478 113.948 177.652 113.888 177.868C113.828 178.072 113.798 178.318 113.798 178.606C113.798 179.122 113.816 179.656 113.852 180.208C113.888 180.748 113.906 181.3 113.906 181.864C113.906 182.452 113.786 182.902 113.546 183.214C113.318 183.514 112.892 183.718 112.268 183.826V183.898C112.892 184.006 113.318 184.216 113.546 184.528C113.786 184.828 113.906 185.272 113.906 185.86C113.906 186.472 113.888 187.03 113.852 187.534C113.816 188.038 113.798 188.566 113.798 189.118C113.798 189.406 113.828 189.652 113.888 189.856C113.948 190.072 114.056 190.246 114.212 190.378C114.38 190.51 114.608 190.606 114.896 190.666C115.196 190.726 115.574 190.756 116.03 190.756H116.966V191.602H115.868ZM119.875 188.866L123.205 184.33L120.127 180.118H121.765L123.151 182.044C123.307 182.284 123.469 182.53 123.637 182.782C123.817 183.034 123.997 183.28 124.177 183.52H124.249C124.417 183.28 124.585 183.028 124.753 182.764C124.921 182.5 125.083 182.248 125.239 182.008L126.553 180.118H128.119L125.005 184.456L128.353 188.866H126.733L125.203 186.85C125.023 186.598 124.831 186.334 124.627 186.058C124.435 185.782 124.243 185.518 124.051 185.266H123.979C123.799 185.53 123.619 185.794 123.439 186.058C123.259 186.31 123.079 186.574 122.899 186.85L121.459 188.866H119.875ZM142.667 192.628C142.235 192.628 141.851 192.568 141.515 192.448L141.821 191.278C141.941 191.314 142.067 191.344 142.199 191.368C142.343 191.392 142.481 191.404 142.613 191.404C143.225 191.404 143.723 191.224 144.107 190.864C144.491 190.516 144.791 190.072 145.007 189.532L145.277 188.884L141.191 180.118H142.685L144.827 184.96C144.995 185.344 145.169 185.758 145.349 186.202C145.541 186.646 145.727 187.078 145.907 187.498H145.979C146.135 187.078 146.291 186.652 146.447 186.22C146.615 185.776 146.771 185.356 146.915 184.96L148.823 180.118H150.227L146.375 189.586C146.207 190.018 146.015 190.42 145.799 190.792C145.583 191.164 145.325 191.482 145.025 191.746C144.725 192.022 144.377 192.238 143.981 192.394C143.597 192.55 143.159 192.628 142.667 192.628ZM163.173 188.866V188.074L169.167 181.324H163.839V180.118H171.291V180.91L165.279 187.66H171.453V188.866H163.173ZM178.088 182.638C177.68 182.638 177.332 182.5 177.044 182.224C176.768 181.948 176.63 181.582 176.63 181.126C176.63 180.67 176.768 180.304 177.044 180.028C177.332 179.74 177.68 179.596 178.088 179.596C178.496 179.596 178.838 179.74 179.114 180.028C179.402 180.304 179.546 180.67 179.546 181.126C179.546 181.582 179.402 181.948 179.114 182.224C178.838 182.5 178.496 182.638 178.088 182.638ZM178.088 189.082C177.68 189.082 177.332 188.944 177.044 188.668C176.768 188.392 176.63 188.026 176.63 187.57C176.63 187.114 176.768 186.748 177.044 186.472C177.332 186.184 177.68 186.04 178.088 186.04C178.496 186.04 178.838 186.184 179.114 186.472C179.402 186.748 179.546 187.114 179.546 187.57C179.546 188.026 179.402 188.392 179.114 188.668C178.838 188.944 178.496 189.082 178.088 189.082ZM200.591 189.082C199.859 189.082 199.181 188.944 198.557 188.668C197.933 188.392 197.387 187.996 196.919 187.48C196.463 186.952 196.103 186.31 195.839 185.554C195.575 184.786 195.443 183.922 195.443 182.962C195.443 182.014 195.575 181.162 195.839 180.406C196.103 179.65 196.469 179.008 196.937 178.48C197.405 177.952 197.963 177.55 198.611 177.274C199.259 176.986 199.967 176.842 200.735 176.842C201.443 176.842 202.067 176.986 202.607 177.274C203.159 177.562 203.609 177.898 203.957 178.282L203.111 179.236C202.799 178.912 202.451 178.654 202.067 178.462C201.683 178.258 201.239 178.156 200.735 178.156C200.171 178.156 199.655 178.27 199.187 178.498C198.731 178.714 198.341 179.032 198.017 179.452C197.693 179.86 197.441 180.358 197.261 180.946C197.081 181.534 196.991 182.194 196.991 182.926C196.991 183.67 197.081 184.342 197.261 184.942C197.441 185.53 197.693 186.034 198.017 186.454C198.341 186.874 198.731 187.198 199.187 187.426C199.655 187.654 200.171 187.768 200.735 187.768C201.275 187.768 201.755 187.654 202.175 187.426C202.607 187.198 203.015 186.874 203.399 186.454L204.245 187.372C203.777 187.912 203.249 188.332 202.661 188.632C202.073 188.932 201.383 189.082 200.591 189.082ZM206.848 191.602V190.756H207.766C208.222 190.756 208.594 190.726 208.882 190.666C209.182 190.606 209.416 190.51 209.584 190.378C209.752 190.246 209.866 190.072 209.926 189.856C209.986 189.652 210.016 189.406 210.016 189.118C210.016 188.566 209.998 188.038 209.962 187.534C209.926 187.03 209.908 186.472 209.908 185.86C209.908 185.272 210.022 184.828 210.25 184.528C210.478 184.216 210.904 184.006 211.528 183.898V183.826C210.904 183.718 210.478 183.514 210.25 183.214C210.022 182.902 209.908 182.452 209.908 181.864C209.908 181.3 209.926 180.748 209.962 180.208C209.998 179.656 210.016 179.122 210.016 178.606C210.016 178.318 209.986 178.072 209.926 177.868C209.866 177.652 209.752 177.478 209.584 177.346C209.416 177.214 209.182 177.118 208.882 177.058C208.594 176.998 208.222 176.968 207.766 176.968H206.848V176.122H207.946C208.51 176.122 208.996 176.164 209.404 176.248C209.824 176.32 210.172 176.446 210.448 176.626C210.724 176.806 210.928 177.052 211.06 177.364C211.192 177.664 211.258 178.048 211.258 178.516C211.258 179.14 211.228 179.734 211.168 180.298C211.12 180.85 211.096 181.414 211.096 181.99C211.096 182.17 211.132 182.344 211.204 182.512C211.276 182.668 211.408 182.812 211.6 182.944C211.792 183.076 212.056 183.184 212.392 183.268C212.74 183.352 213.178 183.394 213.706 183.394V184.33C213.178 184.33 212.74 184.372 212.392 184.456C212.056 184.54 211.792 184.648 211.6 184.78C211.408 184.912 211.276 185.062 211.204 185.23C211.132 185.386 211.096 185.554 211.096 185.734C211.096 186.034 211.102 186.322 211.114 186.598C211.138 186.874 211.156 187.15 211.168 187.426C211.192 187.702 211.21 187.99 211.222 188.29C211.246 188.578 211.258 188.884 211.258 189.208C211.258 189.676 211.192 190.06 211.06 190.36C210.928 190.672 210.724 190.918 210.448 191.098C210.172 191.278 209.824 191.404 209.404 191.476C208.996 191.56 208.51 191.602 207.946 191.602H206.848ZM232.214 189.136L231.458 188.308L235.076 184.942H227.174V183.718H235.076L231.458 180.352L232.214 179.524L237.128 184.294V184.366L232.214 189.136ZM256.032 192.034C254.784 191.062 253.794 189.892 253.062 188.524C252.342 187.156 251.982 185.602 251.982 183.862C251.982 182.122 252.342 180.568 253.062 179.2C253.794 177.832 254.784 176.662 256.032 175.69L256.842 176.446C255.63 177.466 254.736 178.576 254.16 179.776C253.596 180.976 253.314 182.338 253.314 183.862C253.314 185.386 253.596 186.748 254.16 187.948C254.736 189.148 255.63 190.258 256.842 191.278L256.032 192.034ZM263.387 188.866V181.324H260.885V180.208L263.387 180.118V179.38C263.387 178.312 263.669 177.454 264.233 176.806C264.809 176.158 265.703 175.834 266.915 175.834C267.779 175.834 268.619 176.002 269.435 176.338L269.093 177.454C268.733 177.286 268.397 177.178 268.085 177.13C267.785 177.07 267.443 177.04 267.059 177.04C266.267 177.04 265.697 177.244 265.349 177.652C265.013 178.048 264.845 178.606 264.845 179.326V180.118H268.517V181.324H264.845V188.866H263.387ZM275.224 182.638C274.816 182.638 274.468 182.5 274.18 182.224C273.904 181.948 273.766 181.582 273.766 181.126C273.766 180.67 273.904 180.304 274.18 180.028C274.468 179.74 274.816 179.596 275.224 179.596C275.632 179.596 275.974 179.74 276.25 180.028C276.538 180.304 276.682 180.67 276.682 181.126C276.682 181.582 276.538 181.948 276.25 182.224C275.974 182.5 275.632 182.638 275.224 182.638ZM275.224 189.082C274.816 189.082 274.468 188.944 274.18 188.668C273.904 188.392 273.766 188.026 273.766 187.57C273.766 187.114 273.904 186.748 274.18 186.472C274.468 186.184 274.816 186.04 275.224 186.04C275.632 186.04 275.974 186.184 276.25 186.472C276.538 186.748 276.682 187.114 276.682 187.57C276.682 188.026 276.538 188.392 276.25 188.668C275.974 188.944 275.632 189.082 275.224 189.082ZM292.562 188.866L295.892 184.33L292.814 180.118H294.452L295.838 182.044C295.994 182.284 296.156 182.53 296.324 182.782C296.504 183.034 296.684 183.28 296.864 183.52H296.936C297.104 183.28 297.272 183.028 297.44 182.764C297.608 182.5 297.77 182.248 297.926 182.008L299.24 180.118H300.806L297.692 184.456L301.04 188.866H299.42L297.89 186.85C297.71 186.598 297.518 186.334 297.314 186.058C297.122 185.782 296.93 185.518 296.738 185.266H296.666C296.486 185.53 296.306 185.794 296.126 186.058C295.946 186.31 295.766 186.574 295.586 186.85L294.146 188.866H292.562ZM318.558 189.136L317.802 188.308L321.42 184.942H313.518V183.718H321.42L317.802 180.352L318.558 179.524L323.472 184.294V184.366L318.558 189.136ZM336.94 192.628C336.508 192.628 336.124 192.568 335.788 192.448L336.094 191.278C336.214 191.314 336.34 191.344 336.472 191.368C336.616 191.392 336.754 191.404 336.886 191.404C337.498 191.404 337.996 191.224 338.38 190.864C338.764 190.516 339.064 190.072 339.28 189.532L339.55 188.884L335.464 180.118H336.958L339.1 184.96C339.268 185.344 339.442 185.758 339.622 186.202C339.814 186.646 340 187.078 340.18 187.498H340.252C340.408 187.078 340.564 186.652 340.72 186.22C340.888 185.776 341.044 185.356 341.188 184.96L343.096 180.118H344.5L340.648 189.586C340.48 190.018 340.288 190.42 340.072 190.792C339.856 191.164 339.598 191.482 339.298 191.746C338.998 192.022 338.65 192.238 338.254 192.394C337.87 192.55 337.432 192.628 336.94 192.628ZM348.381 192.034L347.571 191.278C348.783 190.258 349.671 189.148 350.235 187.948C350.811 186.748 351.099 185.386 351.099 183.862C351.099 182.338 350.811 180.976 350.235 179.776C349.671 178.576 348.783 177.466 347.571 176.446L348.381 175.69C349.629 176.662 350.613 177.832 351.333 179.2C352.065 180.568 352.431 182.122 352.431 183.862C352.431 185.602 352.065 187.156 351.333 188.524C350.613 189.892 349.629 191.062 348.381 192.034ZM372.523 189.136L371.767 188.308L375.385 184.942H367.483V183.718H375.385L371.767 180.352L372.523 179.524L377.437 184.294V184.366L372.523 189.136ZM396.341 192.034C395.093 191.062 394.103 189.892 393.371 188.524C392.651 187.156 392.291 185.602 392.291 183.862C392.291 182.122 392.651 180.568 393.371 179.2C394.103 177.832 395.093 176.662 396.341 175.69L397.151 176.446C395.939 177.466 395.045 178.576 394.469 179.776C393.905 180.976 393.623 182.338 393.623 183.862C393.623 185.386 393.905 186.748 394.469 187.948C395.045 189.148 395.939 190.258 397.151 191.278L396.341 192.034ZM404.668 192.898C403.384 192.898 402.388 192.688 401.68 192.268C400.984 191.848 400.636 191.248 400.636 190.468C400.636 190.12 400.756 189.778 400.996 189.442C401.248 189.106 401.608 188.8 402.076 188.524V188.452C401.836 188.32 401.626 188.14 401.446 187.912C401.266 187.684 401.176 187.384 401.176 187.012C401.176 186.736 401.266 186.454 401.446 186.166C401.626 185.866 401.884 185.602 402.22 185.374V185.302C401.92 185.074 401.662 184.774 401.446 184.402C401.242 184.018 401.14 183.562 401.14 183.034C401.14 182.554 401.23 182.122 401.41 181.738C401.602 181.354 401.854 181.03 402.166 180.766C402.478 180.49 402.838 180.28 403.246 180.136C403.666 179.98 404.11 179.902 404.578 179.902C405.058 179.902 405.49 179.974 405.874 180.118H409.492V181.324H407.224C407.428 181.528 407.602 181.786 407.746 182.098C407.89 182.41 407.962 182.74 407.962 183.088C407.962 183.556 407.872 183.976 407.692 184.348C407.524 184.72 407.284 185.038 406.972 185.302C406.672 185.554 406.312 185.752 405.892 185.896C405.484 186.028 405.046 186.094 404.578 186.094C404.35 186.094 404.104 186.07 403.84 186.022C403.588 185.962 403.342 185.878 403.102 185.77C402.646 186.058 402.418 186.394 402.418 186.778C402.418 187.126 402.574 187.384 402.886 187.552C403.21 187.708 403.66 187.786 404.236 187.786H406.198C407.326 187.786 408.16 187.942 408.7 188.254C409.252 188.566 409.528 189.094 409.528 189.838C409.528 190.246 409.414 190.636 409.186 191.008C408.958 191.38 408.634 191.704 408.214 191.98C407.794 192.256 407.284 192.478 406.684 192.646C406.084 192.814 405.412 192.898 404.668 192.898ZM404.578 185.104C405.142 185.104 405.616 184.918 406 184.546C406.396 184.174 406.594 183.67 406.594 183.034C406.594 182.734 406.54 182.458 406.432 182.206C406.324 181.954 406.18 181.738 406 181.558C405.82 181.378 405.604 181.24 405.352 181.144C405.112 181.036 404.854 180.982 404.578 180.982C404.302 180.982 404.038 181.036 403.786 181.144C403.546 181.24 403.336 181.378 403.156 181.558C402.976 181.738 402.832 181.954 402.724 182.206C402.616 182.458 402.562 182.734 402.562 183.034C402.562 183.67 402.76 184.174 403.156 184.546C403.552 184.918 404.026 185.104 404.578 185.104ZM404.776 191.818C405.28 191.818 405.736 191.77 406.144 191.674C406.552 191.578 406.9 191.446 407.188 191.278C407.476 191.122 407.692 190.936 407.836 190.72C407.992 190.516 408.07 190.3 408.07 190.072C408.07 189.652 407.902 189.37 407.566 189.226C407.242 189.082 406.744 189.01 406.072 189.01H404.362C404.11 189.01 403.87 188.998 403.642 188.974C403.426 188.962 403.222 188.926 403.03 188.866C402.61 189.094 402.316 189.328 402.148 189.568C401.992 189.82 401.914 190.072 401.914 190.324C401.914 190.78 402.154 191.14 402.634 191.404C403.126 191.68 403.84 191.818 404.776 191.818ZM415.533 182.638C415.125 182.638 414.777 182.5 414.489 182.224C414.213 181.948 414.075 181.582 414.075 181.126C414.075 180.67 414.213 180.304 414.489 180.028C414.777 179.74 415.125 179.596 415.533 179.596C415.941 179.596 416.283 179.74 416.559 180.028C416.847 180.304 416.991 180.67 416.991 181.126C416.991 181.582 416.847 181.948 416.559 182.224C416.283 182.5 415.941 182.638 415.533 182.638ZM415.533 189.082C415.125 189.082 414.777 188.944 414.489 188.668C414.213 188.392 414.075 188.026 414.075 187.57C414.075 187.114 414.213 186.748 414.489 186.472C414.777 186.184 415.125 186.04 415.533 186.04C415.941 186.04 416.283 186.184 416.559 186.472C416.847 186.748 416.991 187.114 416.991 187.57C416.991 188.026 416.847 188.392 416.559 188.668C416.283 188.944 415.941 189.082 415.533 189.082ZM434.077 192.628C433.645 192.628 433.261 192.568 432.925 192.448L433.231 191.278C433.351 191.314 433.477 191.344 433.609 191.368C433.753 191.392 433.891 191.404 434.023 191.404C434.635 191.404 435.133 191.224 435.517 190.864C435.901 190.516 436.201 190.072 436.417 189.532L436.687 188.884L432.601 180.118H434.095L436.237 184.96C436.405 185.344 436.579 185.758 436.759 186.202C436.951 186.646 437.137 187.078 437.317 187.498H437.389C437.545 187.078 437.701 186.652 437.857 186.22C438.025 185.776 438.181 185.356 438.325 184.96L440.233 180.118H441.637L437.785 189.586C437.617 190.018 437.425 190.42 437.209 190.792C436.993 191.164 436.735 191.482 436.435 191.746C436.135 192.022 435.787 192.238 435.391 192.394C435.007 192.55 434.569 192.628 434.077 192.628ZM458.867 189.136L458.111 188.308L461.729 184.942H453.827V183.718H461.729L458.111 180.352L458.867 179.524L463.781 184.294V184.366L458.867 189.136ZM476.169 188.866V188.074L482.163 181.324H476.835V180.118H484.287V180.91L478.275 187.66H484.449V188.866H476.169ZM488.69 192.034L487.88 191.278C489.092 190.258 489.98 189.148 490.544 187.948C491.12 186.748 491.408 185.386 491.408 183.862C491.408 182.338 491.12 180.976 490.544 179.776C489.98 178.576 489.092 177.466 487.88 176.446L488.69 175.69C489.938 176.662 490.922 177.832 491.642 179.2C492.374 180.568 492.74 182.122 492.74 183.862C492.74 185.602 492.374 187.156 491.642 188.524C490.922 189.892 489.938 191.062 488.69 192.034Z" fill="white"/>
<path fill-rule="evenodd" clip-rule="evenodd" d="M172.409 28.9519L172.409 64.9297H177.182L171.409 74.9297L165.635 64.9297H170.409L170.409 28.9519H172.409Z" fill="white"/>
<path d="M192.905 55.8524C191.616 55.8524 190.567 55.4305 189.759 54.5867C188.95 53.7371 188.546 52.6033 188.546 51.1854V50.8865C188.546 49.9432 188.725 49.1024 189.082 48.3641C189.445 47.6199 189.949 47.0399 190.594 46.6238C191.244 46.202 191.947 45.991 192.703 45.991C193.939 45.991 194.9 46.3983 195.586 47.2127C196.271 48.0272 196.614 49.1932 196.614 50.7108V51.3875H190.172C190.195 52.325 190.468 53.0838 190.989 53.6639C191.517 54.2381 192.185 54.5252 192.993 54.5252C193.567 54.5252 194.054 54.408 194.452 54.1736C194.851 53.9393 195.199 53.6287 195.498 53.242L196.491 54.0154C195.694 55.2401 194.499 55.8524 192.905 55.8524ZM192.703 47.327C192.047 47.327 191.496 47.5672 191.051 48.0477C190.605 48.5223 190.33 49.1902 190.225 50.0516H194.988V49.9285C194.941 49.1024 194.719 48.4637 194.32 48.0125C193.922 47.5555 193.383 47.327 192.703 47.327ZM200.27 55.6766H198.644V42.1766H200.27V55.6766ZM208.752 55.6766C208.658 55.4891 208.582 55.1551 208.523 54.6746C207.768 55.4598 206.865 55.8524 205.816 55.8524C204.879 55.8524 204.108 55.5887 203.505 55.0613C202.907 54.5281 202.608 53.8543 202.608 53.0399C202.608 52.0496 202.983 51.282 203.733 50.7371C204.489 50.1863 205.55 49.9109 206.915 49.9109H208.497V49.1639C208.497 48.5955 208.327 48.1443 207.987 47.8104C207.647 47.4705 207.146 47.3006 206.484 47.3006C205.904 47.3006 205.418 47.4471 205.025 47.7401C204.633 48.033 204.436 48.3875 204.436 48.8035H202.802C202.802 48.3289 202.969 47.8719 203.303 47.4324C203.643 46.9871 204.1 46.6356 204.674 46.3777C205.254 46.1199 205.89 45.991 206.581 45.991C207.677 45.991 208.535 46.2664 209.156 46.8172C209.777 47.3621 210.1 48.1151 210.123 49.076V53.4529C210.123 54.326 210.234 55.0203 210.457 55.5359V55.6766H208.752ZM206.054 54.4373C206.563 54.4373 207.047 54.3055 207.504 54.0418C207.961 53.7781 208.292 53.4354 208.497 53.0135V51.0623H207.223C205.23 51.0623 204.234 51.6453 204.234 52.8113C204.234 53.3211 204.404 53.7195 204.744 54.0067C205.084 54.2938 205.52 54.4373 206.054 54.4373ZM220.723 51.0272C220.723 52.4803 220.389 53.6492 219.721 54.534C219.053 55.4129 218.156 55.8524 217.031 55.8524C215.83 55.8524 214.901 55.4276 214.245 54.5779L214.166 55.6766H212.672V42.1766H214.298V47.2127C214.954 46.3983 215.859 45.991 217.014 45.991C218.168 45.991 219.073 46.4276 219.729 47.3006C220.392 48.1736 220.723 49.369 220.723 50.8865V51.0272ZM219.097 50.8426C219.097 49.7352 218.883 48.8797 218.455 48.2762C218.027 47.6727 217.412 47.3709 216.609 47.3709C215.537 47.3709 214.767 47.869 214.298 48.8651V52.9783C214.796 53.9744 215.572 54.4725 216.627 54.4725C217.406 54.4725 218.013 54.1707 218.446 53.5672C218.88 52.9637 219.097 52.0555 219.097 50.8426ZM222.349 50.8338C222.349 49.9022 222.53 49.0643 222.893 48.3201C223.263 47.576 223.772 47.0018 224.423 46.5975C225.079 46.1932 225.826 45.991 226.664 45.991C227.959 45.991 229.005 46.4393 229.802 47.3358C230.604 48.2322 231.006 49.4246 231.006 50.9129V51.0272C231.006 51.9529 230.827 52.785 230.47 53.5233C230.118 54.2557 229.611 54.827 228.949 55.2371C228.293 55.6473 227.537 55.8524 226.682 55.8524C225.393 55.8524 224.347 55.4041 223.544 54.5076C222.747 53.6111 222.349 52.4246 222.349 50.9481V50.8338ZM223.983 51.0272C223.983 52.0818 224.227 52.9285 224.713 53.5672C225.205 54.2059 225.861 54.5252 226.682 54.5252C227.508 54.5252 228.164 54.2029 228.65 53.5584C229.137 52.908 229.38 51.9998 229.38 50.8338C229.38 49.7908 229.131 48.9471 228.633 48.3026C228.141 47.6522 227.484 47.327 226.664 47.327C225.861 47.327 225.214 47.6463 224.722 48.285C224.229 48.9236 223.983 49.8377 223.983 51.0272ZM237.642 47.6258C237.395 47.5848 237.129 47.5643 236.842 47.5643C235.775 47.5643 235.052 48.0184 234.671 48.9266V55.6766H233.045V46.1668H234.627L234.653 47.2654C235.186 46.4158 235.942 45.991 236.921 45.991C237.237 45.991 237.477 46.032 237.642 46.1141V47.6258ZM244.664 55.6766C244.57 55.4891 244.494 55.1551 244.435 54.6746C243.68 55.4598 242.777 55.8524 241.728 55.8524C240.791 55.8524 240.02 55.5887 239.417 55.0613C238.819 54.5281 238.52 53.8543 238.52 53.0399C238.52 52.0496 238.895 51.282 239.645 50.7371C240.401 50.1863 241.462 49.9109 242.827 49.9109H244.409V49.1639C244.409 48.5955 244.239 48.1443 243.899 47.8104C243.56 47.4705 243.059 47.3006 242.396 47.3006C241.816 47.3006 241.33 47.4471 240.937 47.7401C240.545 48.033 240.349 48.3875 240.349 48.8035H238.714C238.714 48.3289 238.881 47.8719 239.215 47.4324C239.555 46.9871 240.012 46.6356 240.586 46.3777C241.166 46.1199 241.802 45.991 242.493 45.991C243.589 45.991 244.447 46.2664 245.068 46.8172C245.689 47.3621 246.012 48.1151 246.035 49.076V53.4529C246.035 54.326 246.146 55.0203 246.369 55.5359V55.6766H244.664ZM241.966 54.4373C242.476 54.4373 242.959 54.3055 243.416 54.0418C243.873 53.7781 244.204 53.4354 244.409 53.0135V51.0623H243.135C241.143 51.0623 240.146 51.6453 240.146 52.8113C240.146 53.3211 240.316 53.7195 240.656 54.0067C240.996 54.2938 241.433 54.4373 241.966 54.4373ZM250.79 43.8641V46.1668H252.565V47.4236H250.79V53.3211C250.79 53.702 250.869 53.9891 251.027 54.1824C251.185 54.3699 251.455 54.4637 251.836 54.4637C252.023 54.4637 252.281 54.4285 252.609 54.3582V55.6766C252.182 55.7938 251.766 55.8524 251.361 55.8524C250.635 55.8524 250.087 55.6326 249.718 55.1932C249.349 54.7537 249.164 54.1297 249.164 53.3211V47.4236H247.433V46.1668H249.164V43.8641H250.79ZM258.419 55.8524C257.13 55.8524 256.081 55.4305 255.272 54.5867C254.464 53.7371 254.06 52.6033 254.06 51.1854V50.8865C254.06 49.9432 254.238 49.1024 254.596 48.3641C254.959 47.6199 255.463 47.0399 256.107 46.6238C256.758 46.202 257.461 45.991 258.217 45.991C259.453 45.991 260.414 46.3983 261.1 47.2127C261.785 48.0272 262.128 49.1932 262.128 50.7108V51.3875H255.685C255.709 52.325 255.981 53.0838 256.503 53.6639C257.03 54.2381 257.698 54.5252 258.507 54.5252C259.081 54.5252 259.567 54.408 259.966 54.1736C260.364 53.9393 260.713 53.6287 261.012 53.242L262.005 54.0154C261.208 55.2401 260.013 55.8524 258.419 55.8524ZM258.217 47.327C257.56 47.327 257.01 47.5672 256.564 48.0477C256.119 48.5223 255.844 49.1902 255.738 50.0516H260.502V49.9285C260.455 49.1024 260.232 48.4637 259.834 48.0125C259.435 47.5555 258.896 47.327 258.217 47.327ZM270.688 43.8641V46.1668H272.464V47.4236H270.688V53.3211C270.688 53.702 270.768 53.9891 270.926 54.1824C271.084 54.3699 271.353 54.4637 271.734 54.4637C271.922 54.4637 272.18 54.4285 272.508 54.3582V55.6766C272.08 55.7938 271.664 55.8524 271.26 55.8524C270.533 55.8524 269.985 55.6326 269.616 55.1932C269.247 54.7537 269.062 54.1297 269.062 53.3211V47.4236H267.331V46.1668H269.062V43.8641H270.688ZM273.765 50.8338C273.765 49.9022 273.946 49.0643 274.31 48.3201C274.679 47.576 275.188 47.0018 275.839 46.5975C276.495 46.1932 277.242 45.991 278.08 45.991C279.375 45.991 280.421 46.4393 281.218 47.3358C282.02 48.2322 282.422 49.4246 282.422 50.9129V51.0272C282.422 51.9529 282.243 52.785 281.886 53.5233C281.534 54.2557 281.027 54.827 280.365 55.2371C279.709 55.6473 278.953 55.8524 278.098 55.8524C276.809 55.8524 275.763 55.4041 274.96 54.5076C274.163 53.6111 273.765 52.4246 273.765 50.9481V50.8338ZM275.399 51.0272C275.399 52.0818 275.643 52.9285 276.129 53.5672C276.621 54.2059 277.277 54.5252 278.098 54.5252C278.924 54.5252 279.58 54.2029 280.066 53.5584C280.553 52.908 280.796 51.9998 280.796 50.8338C280.796 49.7908 280.547 48.9471 280.049 48.3026C279.557 47.6522 278.9 47.327 278.08 47.327C277.277 47.327 276.63 47.6463 276.138 48.285C275.645 48.9236 275.399 49.8377 275.399 51.0272Z" fill="white"/>
<path fill-rule="evenodd" clip-rule="evenodd" d="M172.409 114.182L172.409 150.16H177.182L171.409 160.16L165.635 150.16H170.409L170.409 114.182H172.409Z" fill="white"/>
<path d="M192.905 141.083C191.616 141.083 190.567 140.661 189.759 139.817C188.95 138.968 188.546 137.834 188.546 136.416V136.117C188.546 135.174 188.725 134.333 189.082 133.595C189.445 132.85 189.949 132.27 190.594 131.854C191.244 131.432 191.947 131.221 192.703 131.221C193.939 131.221 194.9 131.629 195.586 132.443C196.271 133.258 196.614 134.424 196.614 135.941V136.618H190.172C190.195 137.555 190.468 138.314 190.989 138.894C191.517 139.469 192.185 139.756 192.993 139.756C193.567 139.756 194.054 139.638 194.452 139.404C194.851 139.17 195.199 138.859 195.498 138.472L196.491 139.246C195.694 140.471 194.499 141.083 192.905 141.083ZM192.703 132.557C192.047 132.557 191.496 132.798 191.051 133.278C190.605 133.753 190.33 134.421 190.225 135.282H194.988V135.159C194.941 134.333 194.719 133.694 194.32 133.243C193.922 132.786 193.383 132.557 192.703 132.557ZM198.108 136.073C198.108 134.579 198.451 133.398 199.137 132.531C199.822 131.658 200.742 131.221 201.896 131.221C203.021 131.221 203.909 131.599 204.56 132.355L204.63 131.397H206.124V144.563H204.498V140.028C203.842 140.731 202.969 141.083 201.879 141.083C200.73 141.083 199.813 140.637 199.128 139.747C198.448 138.85 198.108 137.664 198.108 136.187V136.073ZM199.734 136.258C199.734 137.347 199.963 138.203 200.42 138.824C200.883 139.445 201.504 139.756 202.283 139.756C203.25 139.756 203.988 139.328 204.498 138.472V133.814C203.982 132.976 203.25 132.557 202.301 132.557C201.516 132.557 200.892 132.871 200.429 133.498C199.966 134.119 199.734 135.039 199.734 136.258ZM214.605 139.967C213.973 140.711 213.044 141.083 211.819 141.083C210.806 141.083 210.032 140.79 209.499 140.204C208.972 139.612 208.705 138.739 208.699 137.585V131.397H210.325V137.541C210.325 138.982 210.911 139.703 212.083 139.703C213.325 139.703 214.151 139.24 214.561 138.314V131.397H216.187V140.907H214.641L214.605 139.967ZM220.433 140.907H218.807V131.397H220.433V140.907ZM218.675 128.875C218.675 128.611 218.754 128.388 218.912 128.207C219.076 128.025 219.316 127.934 219.633 127.934C219.949 127.934 220.189 128.025 220.353 128.207C220.518 128.388 220.6 128.611 220.6 128.875C220.6 129.138 220.518 129.358 220.353 129.534C220.189 129.71 219.949 129.798 219.633 129.798C219.316 129.798 219.076 129.71 218.912 129.534C218.754 129.358 218.675 129.138 218.675 128.875ZM226.181 138.701L228.536 131.397H230.197L226.787 140.907H225.548L222.102 131.397H223.764L226.181 138.701ZM237.492 140.907C237.398 140.72 237.322 140.386 237.264 139.905C236.508 140.69 235.605 141.083 234.557 141.083C233.619 141.083 232.849 140.819 232.245 140.292C231.647 139.759 231.349 139.085 231.349 138.27C231.349 137.28 231.724 136.512 232.474 135.968C233.229 135.417 234.29 135.141 235.655 135.141H237.237V134.394C237.237 133.826 237.067 133.375 236.727 133.041C236.388 132.701 235.887 132.531 235.225 132.531C234.644 132.531 234.158 132.678 233.766 132.971C233.373 133.263 233.177 133.618 233.177 134.034H231.542C231.542 133.559 231.709 133.102 232.043 132.663C232.383 132.218 232.84 131.866 233.414 131.608C233.994 131.35 234.63 131.221 235.321 131.221C236.417 131.221 237.275 131.497 237.896 132.048C238.518 132.593 238.84 133.346 238.863 134.306V138.683C238.863 139.556 238.975 140.251 239.197 140.766V140.907H237.492ZM234.794 139.668C235.304 139.668 235.787 139.536 236.244 139.272C236.701 139.009 237.032 138.666 237.237 138.244V136.293H235.963C233.971 136.293 232.975 136.876 232.975 138.042C232.975 138.552 233.144 138.95 233.484 139.237C233.824 139.524 234.261 139.668 234.794 139.668ZM243.179 140.907H241.553V127.407H243.179V140.907ZM249.735 141.083C248.446 141.083 247.397 140.661 246.589 139.817C245.78 138.968 245.376 137.834 245.376 136.416V136.117C245.376 135.174 245.555 134.333 245.912 133.595C246.275 132.85 246.779 132.27 247.424 131.854C248.074 131.432 248.777 131.221 249.533 131.221C250.769 131.221 251.73 131.629 252.416 132.443C253.102 133.258 253.444 134.424 253.444 135.941V136.618H247.002C247.025 137.555 247.298 138.314 247.819 138.894C248.347 139.469 249.015 139.756 249.823 139.756C250.397 139.756 250.884 139.638 251.282 139.404C251.681 139.17 252.029 138.859 252.328 138.472L253.321 139.246C252.524 140.471 251.329 141.083 249.735 141.083ZM249.533 132.557C248.877 132.557 248.326 132.798 247.881 133.278C247.435 133.753 247.16 134.421 247.055 135.282H251.818V135.159C251.771 134.333 251.549 133.694 251.15 133.243C250.752 132.786 250.213 132.557 249.533 132.557ZM256.872 131.397L256.925 132.593C257.651 131.679 258.601 131.221 259.772 131.221C261.782 131.221 262.796 132.355 262.813 134.623V140.907H261.187V134.614C261.182 133.929 261.023 133.422 260.713 133.094C260.408 132.765 259.931 132.601 259.28 132.601C258.753 132.601 258.29 132.742 257.892 133.023C257.493 133.304 257.183 133.674 256.96 134.131V140.907H255.334V131.397H256.872ZM267.472 129.095V131.397H269.247V132.654H267.472V138.552C267.472 138.932 267.551 139.22 267.709 139.413C267.867 139.6 268.137 139.694 268.518 139.694C268.705 139.694 268.963 139.659 269.291 139.589V140.907C268.863 141.024 268.447 141.083 268.043 141.083C267.316 141.083 266.768 140.863 266.399 140.424C266.03 139.984 265.846 139.36 265.846 138.552V132.654H264.114V131.397H265.846V129.095H267.472ZM277.157 131.397L277.21 132.593C277.936 131.679 278.886 131.221 280.058 131.221C282.067 131.221 283.081 132.355 283.099 134.623V140.907H281.473V134.614C281.467 133.929 281.309 133.422 280.998 133.094C280.693 132.765 280.216 132.601 279.565 132.601C279.038 132.601 278.575 132.742 278.177 133.023C277.778 133.304 277.468 133.674 277.245 134.131V140.907H275.619V131.397H277.157ZM285.12 136.064C285.12 135.133 285.302 134.295 285.665 133.551C286.034 132.806 286.544 132.232 287.194 131.828C287.851 131.424 288.598 131.221 289.435 131.221C290.73 131.221 291.776 131.67 292.573 132.566C293.376 133.463 293.777 134.655 293.777 136.143V136.258C293.777 137.183 293.599 138.015 293.241 138.754C292.89 139.486 292.383 140.057 291.721 140.468C291.064 140.878 290.309 141.083 289.453 141.083C288.164 141.083 287.118 140.635 286.315 139.738C285.518 138.842 285.12 137.655 285.12 136.179V136.064ZM286.755 136.258C286.755 137.312 286.998 138.159 287.484 138.798C287.977 139.436 288.633 139.756 289.453 139.756C290.279 139.756 290.935 139.433 291.422 138.789C291.908 138.138 292.151 137.23 292.151 136.064C292.151 135.021 291.902 134.178 291.404 133.533C290.912 132.883 290.256 132.557 289.435 132.557C288.633 132.557 287.985 132.877 287.493 133.515C287.001 134.154 286.755 135.068 286.755 136.258ZM297.354 131.397L297.407 132.593C298.134 131.679 299.083 131.221 300.255 131.221C302.265 131.221 303.278 132.355 303.296 134.623V140.907H301.67V134.614C301.664 133.929 301.506 133.422 301.195 133.094C300.891 132.765 300.413 132.601 299.763 132.601C299.235 132.601 298.772 132.742 298.374 133.023C297.976 133.304 297.665 133.674 297.442 134.131V140.907H295.816V131.397H297.354ZM309.132 136.135H304.843V134.807H309.132V136.135ZM314.537 139.756C315.117 139.756 315.624 139.58 316.058 139.228C316.491 138.877 316.731 138.437 316.778 137.91H318.316C318.287 138.455 318.1 138.973 317.754 139.466C317.408 139.958 316.945 140.35 316.365 140.643C315.791 140.936 315.182 141.083 314.537 141.083C313.242 141.083 312.211 140.652 311.443 139.791C310.682 138.924 310.301 137.74 310.301 136.24V135.968C310.301 135.042 310.471 134.219 310.81 133.498C311.15 132.777 311.637 132.218 312.269 131.819C312.908 131.421 313.661 131.221 314.528 131.221C315.595 131.221 316.479 131.541 317.183 132.179C317.892 132.818 318.269 133.647 318.316 134.667H316.778C316.731 134.052 316.497 133.548 316.075 133.155C315.659 132.757 315.143 132.557 314.528 132.557C313.702 132.557 313.06 132.856 312.603 133.454C312.152 134.046 311.927 134.904 311.927 136.029V136.337C311.927 137.432 312.152 138.276 312.603 138.868C313.055 139.46 313.699 139.756 314.537 139.756ZM319.714 136.064C319.714 135.133 319.895 134.295 320.259 133.551C320.628 132.806 321.138 132.232 321.788 131.828C322.444 131.424 323.191 131.221 324.029 131.221C325.324 131.221 326.37 131.67 327.167 132.566C327.97 133.463 328.371 134.655 328.371 136.143V136.258C328.371 137.183 328.192 138.015 327.835 138.754C327.483 139.486 326.977 140.057 326.314 140.468C325.658 140.878 324.902 141.083 324.047 141.083C322.758 141.083 321.712 140.635 320.909 139.738C320.112 138.842 319.714 137.655 319.714 136.179V136.064ZM321.349 136.258C321.349 137.312 321.592 138.159 322.078 138.798C322.57 139.436 323.227 139.756 324.047 139.756C324.873 139.756 325.529 139.433 326.016 138.789C326.502 138.138 326.745 137.23 326.745 136.064C326.745 135.021 326.496 134.178 325.998 133.533C325.506 132.883 324.85 132.557 324.029 132.557C323.227 132.557 322.579 132.877 322.087 133.515C321.595 134.154 321.349 135.068 321.349 136.258ZM332.177 140.907H330.551V127.407H332.177V140.907ZM334.356 136.064C334.356 135.133 334.538 134.295 334.901 133.551C335.27 132.806 335.78 132.232 336.431 131.828C337.087 131.424 337.834 131.221 338.672 131.221C339.967 131.221 341.013 131.67 341.81 132.566C342.612 133.463 343.014 134.655 343.014 136.143V136.258C343.014 137.183 342.835 138.015 342.477 138.754C342.126 139.486 341.619 140.057 340.957 140.468C340.301 140.878 339.545 141.083 338.689 141.083C337.4 141.083 336.354 140.635 335.552 139.738C334.755 138.842 334.356 137.655 334.356 136.179V136.064ZM335.991 136.258C335.991 137.312 336.234 138.159 336.721 138.798C337.213 139.436 337.869 139.756 338.689 139.756C339.516 139.756 340.172 139.433 340.658 138.789C341.144 138.138 341.388 137.23 341.388 136.064C341.388 135.021 341.139 134.178 340.641 133.533C340.148 132.883 339.492 132.557 338.672 132.557C337.869 132.557 337.222 132.877 336.729 133.515C336.237 134.154 335.991 135.068 335.991 136.258ZM349.649 132.856C349.403 132.815 349.137 132.795 348.85 132.795C347.783 132.795 347.06 133.249 346.679 134.157V140.907H345.053V131.397H346.635L346.661 132.496C347.194 131.646 347.95 131.221 348.929 131.221C349.245 131.221 349.485 131.262 349.649 131.345V132.856ZM359.432 139.756C360.012 139.756 360.518 139.58 360.952 139.228C361.386 138.877 361.626 138.437 361.673 137.91H363.211C363.182 138.455 362.994 138.973 362.648 139.466C362.303 139.958 361.84 140.35 361.26 140.643C360.685 140.936 360.076 141.083 359.432 141.083C358.137 141.083 357.105 140.652 356.338 139.791C355.576 138.924 355.195 137.74 355.195 136.24V135.968C355.195 135.042 355.365 134.219 355.705 133.498C356.045 132.777 356.531 132.218 357.164 131.819C357.803 131.421 358.556 131.221 359.423 131.221C360.489 131.221 361.374 131.541 362.077 132.179C362.786 132.818 363.164 133.647 363.211 134.667H361.673C361.626 134.052 361.392 133.548 360.97 133.155C360.554 132.757 360.038 132.557 359.423 132.557C358.597 132.557 357.955 132.856 357.498 133.454C357.047 134.046 356.821 134.904 356.821 136.029V136.337C356.821 137.432 357.047 138.276 357.498 138.868C357.949 139.46 358.594 139.756 359.432 139.756ZM364.608 136.064C364.608 135.133 364.79 134.295 365.153 133.551C365.522 132.806 366.032 132.232 366.683 131.828C367.339 131.424 368.086 131.221 368.924 131.221C370.219 131.221 371.265 131.67 372.061 132.566C372.864 133.463 373.266 134.655 373.266 136.143V136.258C373.266 137.183 373.087 138.015 372.729 138.754C372.378 139.486 371.871 140.057 371.209 140.468C370.553 140.878 369.797 141.083 368.941 141.083C367.652 141.083 366.606 140.635 365.804 139.738C365.007 138.842 364.608 137.655 364.608 136.179V136.064ZM366.243 136.258C366.243 137.312 366.486 138.159 366.973 138.798C367.465 139.436 368.121 139.756 368.941 139.756C369.768 139.756 370.424 139.433 370.91 138.789C371.396 138.138 371.64 137.23 371.64 136.064C371.64 135.021 371.391 134.178 370.893 133.533C370.4 132.883 369.744 132.557 368.924 132.557C368.121 132.557 367.474 132.877 366.981 133.515C366.489 134.154 366.243 135.068 366.243 136.258ZM374.909 136.073C374.909 134.614 375.255 133.442 375.946 132.557C376.638 131.667 377.543 131.221 378.662 131.221C379.775 131.221 380.657 131.602 381.308 132.364V127.407H382.934V140.907H381.439L381.36 139.887C380.71 140.684 379.805 141.083 378.644 141.083C377.543 141.083 376.643 140.632 375.946 139.729C375.255 138.827 374.909 137.649 374.909 136.196V136.073ZM376.535 136.258C376.535 137.336 376.758 138.179 377.203 138.789C377.648 139.398 378.264 139.703 379.049 139.703C380.08 139.703 380.833 139.24 381.308 138.314V133.946C380.821 133.05 380.074 132.601 379.066 132.601C378.269 132.601 377.648 132.909 377.203 133.524C376.758 134.139 376.535 135.051 376.535 136.258ZM389.411 141.083C388.122 141.083 387.073 140.661 386.265 139.817C385.456 138.968 385.052 137.834 385.052 136.416V136.117C385.052 135.174 385.23 134.333 385.588 133.595C385.951 132.85 386.455 132.27 387.1 131.854C387.75 131.432 388.453 131.221 389.209 131.221C390.445 131.221 391.406 131.629 392.092 132.443C392.777 133.258 393.12 134.424 393.12 135.941V136.618H386.678C386.701 137.555 386.974 138.314 387.495 138.894C388.022 139.469 388.69 139.756 389.499 139.756C390.073 139.756 390.56 139.638 390.958 139.404C391.356 139.17 391.705 138.859 392.004 138.472L392.997 139.246C392.2 140.471 391.005 141.083 389.411 141.083ZM389.209 132.557C388.553 132.557 388.002 132.798 387.557 133.278C387.111 133.753 386.836 134.421 386.73 135.282H391.494V135.159C391.447 134.333 391.225 133.694 390.826 133.243C390.428 132.786 389.889 132.557 389.209 132.557ZM394.614 136.073C394.614 134.614 394.96 133.442 395.651 132.557C396.343 131.667 397.248 131.221 398.367 131.221C399.48 131.221 400.362 131.602 401.013 132.364V127.407H402.639V140.907H401.144L401.065 139.887C400.415 140.684 399.51 141.083 398.35 141.083C397.248 141.083 396.349 140.632 395.651 139.729C394.96 138.827 394.614 137.649 394.614 136.196V136.073ZM396.24 136.258C396.24 137.336 396.463 138.179 396.908 138.789C397.353 139.398 397.969 139.703 398.754 139.703C399.785 139.703 400.538 139.24 401.013 138.314V133.946C400.526 133.05 399.779 132.601 398.771 132.601C397.975 132.601 397.353 132.909 396.908 133.524C396.463 134.139 396.24 135.051 396.24 136.258ZM415.172 138.385C415.172 137.945 415.005 137.605 414.671 137.365C414.343 137.119 413.766 136.908 412.939 136.732C412.119 136.556 411.466 136.346 410.979 136.099C410.499 135.853 410.142 135.56 409.907 135.221C409.679 134.881 409.564 134.476 409.564 134.008C409.564 133.228 409.893 132.569 410.549 132.03C411.211 131.491 412.055 131.221 413.08 131.221C414.158 131.221 415.031 131.5 415.699 132.056C416.373 132.613 416.71 133.325 416.71 134.192H415.075C415.075 133.747 414.885 133.363 414.504 133.041C414.129 132.719 413.654 132.557 413.08 132.557C412.488 132.557 412.025 132.686 411.691 132.944C411.357 133.202 411.19 133.539 411.19 133.955C411.19 134.347 411.346 134.643 411.656 134.843C411.967 135.042 412.526 135.232 413.335 135.414C414.149 135.596 414.809 135.812 415.312 136.064C415.816 136.316 416.188 136.621 416.429 136.978C416.675 137.33 416.798 137.761 416.798 138.27C416.798 139.12 416.458 139.803 415.778 140.318C415.099 140.828 414.217 141.083 413.133 141.083C412.371 141.083 411.697 140.948 411.111 140.679C410.525 140.409 410.065 140.034 409.731 139.554C409.403 139.067 409.239 138.543 409.239 137.98H410.865C410.894 138.525 411.111 138.959 411.516 139.281C411.926 139.597 412.465 139.756 413.133 139.756C413.748 139.756 414.24 139.633 414.609 139.387C414.984 139.135 415.172 138.801 415.172 138.385ZM422.027 138.525L424.242 131.397H425.982L422.159 142.375C421.567 143.957 420.627 144.748 419.338 144.748L419.03 144.721L418.424 144.607V143.289L418.863 143.324C419.414 143.324 419.842 143.213 420.146 142.99C420.457 142.767 420.712 142.36 420.911 141.768L421.271 140.802L417.879 131.397H419.654L422.027 138.525ZM428.979 131.397L429.032 132.593C429.759 131.679 430.708 131.221 431.88 131.221C433.89 131.221 434.903 132.355 434.921 134.623V140.907H433.295V134.614C433.289 133.929 433.131 133.422 432.82 133.094C432.516 132.765 432.038 132.601 431.388 132.601C430.86 132.601 430.397 132.742 429.999 133.023C429.601 133.304 429.29 133.674 429.067 134.131V140.907H427.441V131.397H428.979ZM439.579 129.095V131.397H441.354V132.654H439.579V138.552C439.579 138.932 439.658 139.22 439.816 139.413C439.975 139.6 440.244 139.694 440.625 139.694C440.812 139.694 441.07 139.659 441.398 139.589V140.907C440.971 141.024 440.555 141.083 440.15 141.083C439.424 141.083 438.876 140.863 438.507 140.424C438.138 139.984 437.953 139.36 437.953 138.552V132.654H436.222V131.397H437.953V129.095H439.579ZM449.133 140.907C449.039 140.72 448.963 140.386 448.904 139.905C448.148 140.69 447.246 141.083 446.197 141.083C445.26 141.083 444.489 140.819 443.886 140.292C443.288 139.759 442.989 139.085 442.989 138.27C442.989 137.28 443.364 136.512 444.114 135.968C444.87 135.417 445.931 135.141 447.296 135.141H448.878V134.394C448.878 133.826 448.708 133.375 448.368 133.041C448.028 132.701 447.527 132.531 446.865 132.531C446.285 132.531 445.799 132.678 445.406 132.971C445.014 133.263 444.817 133.618 444.817 134.034H443.183C443.183 133.559 443.35 133.102 443.684 132.663C444.023 132.218 444.48 131.866 445.055 131.608C445.635 131.35 446.27 131.221 446.962 131.221C448.058 131.221 448.916 131.497 449.537 132.048C450.158 132.593 450.48 133.346 450.504 134.306V138.683C450.504 139.556 450.615 140.251 450.838 140.766V140.907H449.133ZM446.435 139.668C446.944 139.668 447.428 139.536 447.885 139.272C448.342 139.009 448.673 138.666 448.878 138.244V136.293H447.603C445.611 136.293 444.615 136.876 444.615 138.042C444.615 138.552 444.785 138.95 445.125 139.237C445.465 139.524 445.901 139.668 446.435 139.668ZM456.243 134.869L458.352 131.397H460.251L457.14 136.099L460.348 140.907H458.467L456.269 137.347L454.072 140.907H452.183L455.391 136.099L452.279 131.397H454.16L456.243 134.869Z" fill="white"/>
</svg>
